SplineFontDB: 3.2
FontName: knight
FullName: knight ico
FamilyName: knight
Weight: Regular
Copyright: Copyright (c) 2022, SMR
UComments: "2022-3-16: Created with FontForge (http://fontforge.org)"
Version: 0.1.2

ItalicAngle: 0
UnderlinePosition: -100
UnderlineWidth: 50
Ascent: 800
Descent: 200
InvalidEm: 0
LayerCount: 2
Layer: 0 0 "Back" 1
Layer: 1 0 "Fore" 0
XUID: [1021 666 1875860586 29172]
OS2Version: 0
OS2_WeightWidthSlopeOnly: 0
OS2_UseTypoMetrics: 1
CreationTime: 1647390082
ModificationTime: 1648917973
OS2TypoAscent: 0
OS2TypoAOffset: 1
OS2TypoDescent: 0
OS2TypoDOffset: 1
OS2TypoLinegap: 0
OS2WinAscent: 0
OS2WinAOffset: 1
OS2WinDescent: 0
OS2WinDOffset: 1
HheadAscent: 0
HheadAOffset: 1
HheadDescent: 0
HheadDOffset: 1
OS2Vendor: 'PfEd'
MarkAttachClasses: 1
DEI: 91125
Encoding: UnicodeFull
UnicodeInterp: none
NameList: AGL For New Fonts
DisplaySize: -72
AntiAlias: 1
FitToEm: 0
WinInfo: 57376 16 6
BeginPrivate: 1
BlueValues 26 [-200 -99 696 696 797 800]
EndPrivate
BeginChars: 1114112 74

StartChar: plus
Encoding: 43 43 0
Width: 1000
Flags: H
LayerCount: 2
Fore
SplineSet
606.060546875 406.060546875 m 1
 927.272460938 403.030273438 l 2
 966.666992188 403.030273438 1000 369.697265625 1000 330.302734375 c 2
 1000 257.576171875 l 2
 1000 218.181640625 969.697265625 187.87890625 930.302734375 187.87890625 c 2
 609.090820312 190.909179688 l 1
 612.12109375 -130.302734375 l 2
 612.12109375 -169.697265625 581.818359375 -200 542.423828125 -200 c 2
 469.697265625 -200 l 2
 430.302734375 -200 396.969726562 -166.666992188 396.969726562 -127.272460938 c 2
 393.939453125 193.939453125 l 1
 72.7275390625 193.939453125 l 2
 33.3330078125 193.939453125 0 227.272460938 0 266.666992188 c 2
 0 339.393554688 l 2
 0 378.788085938 30.302734375 409.090820312 69.697265625 409.090820312 c 2
 390.909179688 406.060546875 l 1
 387.87890625 730.302734375 l 2
 387.87890625 769.697265625 418.181640625 800 457.576171875 800 c 2
 530.302734375 800 l 2
 569.697265625 800 603.030273438 766.666992188 603.030273438 727.272460938 c 2
 606.060546875 406.060546875 l 1
EndSplineSet
Validated: 1
EndChar

StartChar: 0
Encoding: 48 48 1
Width: 1000
Flags: H
LayerCount: 2
Fore
SplineSet
500 -200 m 0
 436.36328125 -200 381.818359375 -190.909179688 330.302734375 -169.697265625 c 0
 278.788085938 -148.484375 239.393554688 -115.151367188 212.12109375 -66.6669921875 c 0
 181.818359375 -18.181640625 166.666992188 42.423828125 166.666992188 121.211914062 c 2
 166.666992188 478.788085938 l 2
 166.666992188 557.576171875 181.818359375 618.181640625 212.12109375 666.666992188 c 0
 242.423828125 715.151367188 281.818359375 748.484375 330.302734375 769.697265625 c 0
 381.818359375 790.909179688 436.36328125 800 500 800 c 0
 563.63671875 800 618.181640625 790.909179688 669.697265625 769.697265625 c 0
 721.211914062 748.484375 760.606445312 715.151367188 790.909179688 666.666992188 c 0
 821.211914062 618.181640625 836.36328125 557.576171875 836.36328125 478.788085938 c 2
 836.36328125 118.181640625 l 2
 836.36328125 39.3935546875 821.211914062 -21.2119140625 790.909179688 -69.697265625 c 0
 760.606445312 -118.181640625 721.211914062 -151.515625 669.697265625 -172.727539062 c 0
 618.181640625 -190.909179688 560.606445312 -200 500 -200 c 0
500 -15.1513671875 m 0
 539.393554688 -15.1513671875 566.666992188 -3.0302734375 590.909179688 18.181640625 c 0
 612.12109375 39.3935546875 624.2421875 75.7578125 624.2421875 121.211914062 c 2
 624.2421875 478.788085938 l 2
 624.2421875 527.272460938 612.12109375 560.606445312 590.909179688 581.818359375 c 0
 569.697265625 603.030273438 539.393554688 615.151367188 500 615.151367188 c 0
 460.606445312 615.151367188 433.333007812 603.030273438 412.12109375 581.818359375 c 0
 390.909179688 560.606445312 378.788085938 524.2421875 378.788085938 478.788085938 c 2
 378.788085938 118.181640625 l 2
 378.788085938 69.697265625 390.909179688 36.36328125 412.12109375 15.1513671875 c 0
 430.302734375 -6.060546875 460.606445312 -15.1513671875 500 -15.1513671875 c 0
EndSplineSet
Validated: 1
EndChar

StartChar: 1
Encoding: 49 49 2
Width: 1000
Flags: H
LayerCount: 2
Fore
SplineSet
478.788085938 -200 m 0
 451.515625 -200 427.272460938 -193.939453125 406.060546875 -184.848632812 c 0
 384.848632812 -172.727539062 372.727539062 -157.576171875 372.727539062 -136.36328125 c 2
 372.727539062 557.576171875 l 1
 333.333007812 533.333007812 l 2
 324.2421875 530.302734375 318.181640625 527.272460938 312.12109375 527.272460938 c 0
 309.090820312 524.2421875 303.030273438 524.2421875 296.969726562 524.2421875 c 0
 275.7578125 524.2421875 260.606445312 533.333007812 248.484375 551.515625 c 0
 236.36328125 566.666992188 230.302734375 587.87890625 230.302734375 606.060546875 c 0
 230.302734375 621.211914062 233.333007812 633.333007812 239.393554688 645.454101562 c 0
 245.454101562 657.576171875 254.545898438 669.697265625 269.697265625 675.7578125 c 2
 448.484375 784.848632812 l 2
 454.545898438 787.87890625 460.606445312 790.909179688 466.666992188 790.909179688 c 0
 472.727539062 790.909179688 481.818359375 793.939453125 487.87890625 793.939453125 c 0
 509.090820312 793.939453125 530.302734375 787.87890625 551.515625 775.7578125 c 0
 572.727539062 763.63671875 581.818359375 748.484375 581.818359375 727.272460938 c 2
 581.818359375 -139.393554688 l 2
 581.818359375 -160.606445312 569.697265625 -178.788085938 548.484375 -187.87890625 c 0
 527.272460938 -193.939453125 503.030273438 -200 478.788085938 -200 c 0
EndSplineSet
Validated: 1
EndChar

StartChar: 2
Encoding: 50 50 3
Width: 1000
Flags: H
LayerCount: 2
Fore
SplineSet
272.727539062 -200 m 2
 254.545898438 -200 233.333007812 -193.939453125 212.12109375 -181.818359375 c 0
 190.909179688 -169.697265625 178.788085938 -154.545898438 178.788085938 -133.333007812 c 2
 178.788085938 0 l 2
 178.788085938 36.36328125 187.87890625 69.697265625 209.090820312 100 c 0
 230.302734375 130.302734375 257.576171875 160.606445312 287.87890625 187.87890625 c 0
 321.211914062 215.151367188 354.545898438 242.423828125 390.909179688 269.697265625 c 0
 427.272460938 296.969726562 463.63671875 321.211914062 493.939453125 348.484375 c 0
 527.272460938 375.7578125 551.515625 400 572.727539062 427.272460938 c 0
 593.939453125 454.545898438 603.030273438 481.818359375 603.030273438 509.090820312 c 0
 603.030273438 524.2421875 600 539.393554688 593.939453125 554.545898438 c 0
 587.87890625 569.697265625 575.7578125 581.818359375 560.606445312 590.909179688 c 0
 545.454101562 600 524.2421875 606.060546875 500 606.060546875 c 0
 472.727539062 606.060546875 448.484375 596.969726562 427.272460938 581.818359375 c 0
 406.060546875 566.666992188 396.969726562 539.393554688 396.969726562 503.030273438 c 0
 396.969726562 481.818359375 387.87890625 463.63671875 366.666992188 448.484375 c 0
 345.454101562 433.333007812 318.181640625 424.2421875 284.848632812 424.2421875 c 0
 257.576171875 424.2421875 236.36328125 433.333007812 218.181640625 448.484375 c 0
 200 463.63671875 190.909179688 493.939453125 190.909179688 536.36328125 c 0
 190.909179688 590.909179688 206.060546875 639.393554688 236.36328125 678.788085938 c 0
 266.666992188 718.181640625 303.030273438 748.484375 351.515625 766.666992188 c 0
 400 787.87890625 448.484375 796.969726562 500 796.969726562 c 0
 551.515625 796.969726562 603.030273438 784.848632812 651.515625 763.63671875 c 0
 700 742.423828125 739.393554688 709.090820312 769.697265625 669.697265625 c 0
 800 627.272460938 815.151367188 575.7578125 815.151367188 515.151367188 c 0
 815.151367188 466.666992188 806.060546875 421.211914062 784.848632812 381.818359375 c 0
 763.63671875 342.423828125 739.393554688 306.060546875 706.060546875 275.7578125 c 0
 675.7578125 245.454101562 639.393554688 215.151367188 606.060546875 190.909179688 c 0
 569.697265625 166.666992188 536.36328125 142.423828125 506.060546875 121.211914062 c 0
 475.7578125 100 448.484375 78.7880859375 427.272460938 60.6064453125 c 0
 406.060546875 39.3935546875 396.969726562 21.2119140625 396.969726562 -0 c 2
 396.969726562 -12.12109375 l 1
 757.576171875 -12.12109375 l 2
 775.7578125 -12.12109375 790.909179688 -21.2119140625 803.030273438 -39.3935546875 c 0
 815.151367188 -57.576171875 821.211914062 -78.7880859375 821.211914062 -103.030273438 c 0
 821.211914062 -127.272460938 815.151367188 -148.484375 803.030273438 -169.697265625 c 0
 787.87890625 -187.87890625 772.727539062 -200 757.576171875 -200 c 2
 272.727539062 -200 l 2
EndSplineSet
Validated: 1
EndChar

StartChar: 3
Encoding: 51 51 4
Width: 1000
Flags: H
LayerCount: 2
Fore
SplineSet
490.909179688 -200 m 0
 433.333007812 -200 384.848632812 -190.909179688 342.423828125 -175.7578125 c 0
 300 -160.606445312 266.666992188 -139.393554688 242.423828125 -115.151367188 c 0
 218.181640625 -90.9091796875 196.969726562 -60.6064453125 184.848632812 -33.3330078125 c 0
 172.727539062 -3.0302734375 166.666992188 27.2724609375 166.666992188 54.5458984375 c 0
 166.666992188 84.8486328125 172.727539062 106.060546875 187.87890625 115.151367188 c 0
 206.060546875 127.272460938 230.302734375 133.333007812 266.666992188 133.333007812 c 0
 309.090820312 133.333007812 339.393554688 127.272460938 354.545898438 118.181640625 c 0
 369.697265625 109.090820312 375.7578125 90.9091796875 375.7578125 63.63671875 c 0
 375.7578125 48.484375 378.788085938 33.3330078125 384.848632812 24.2421875 c 0
 390.909179688 15.1513671875 400 6.060546875 412.12109375 -0 c 0
 424.2421875 -6.060546875 436.36328125 -9.0908203125 451.515625 -12.12109375 c 0
 466.666992188 -15.1513671875 481.818359375 -15.1513671875 496.969726562 -15.1513671875 c 0
 542.423828125 -15.1513671875 575.7578125 -6.060546875 593.939453125 12.12109375 c 0
 612.12109375 30.302734375 621.211914062 60.6064453125 621.211914062 106.060546875 c 2
 621.211914062 133.333007812 l 2
 621.211914062 178.788085938 609.090820312 209.090820312 584.848632812 221.211914062 c 0
 560.606445312 233.333007812 530.302734375 242.423828125 490.909179688 242.423828125 c 0
 469.697265625 242.423828125 451.515625 251.515625 442.423828125 266.666992188 c 0
 433.333007812 284.848632812 430.302734375 303.030273438 430.302734375 321.211914062 c 0
 430.302734375 342.423828125 433.333007812 360.606445312 442.423828125 378.788085938 c 0
 451.515625 396.969726562 466.666992188 403.030273438 490.909179688 403.030273438 c 0
 509.090820312 403.030273438 524.2421875 406.060546875 542.423828125 409.090820312 c 0
 557.576171875 412.12109375 572.727539062 424.2421875 581.818359375 439.393554688 c 0
 590.909179688 457.576171875 596.969726562 481.818359375 596.969726562 518.181640625 c 0
 596.969726562 557.576171875 587.87890625 584.848632812 566.666992188 596.969726562 c 0
 548.484375 612.12109375 524.2421875 618.181640625 496.969726562 618.181640625 c 0
 481.818359375 618.181640625 466.666992188 618.181640625 454.545898438 615.151367188 c 0
 442.423828125 612.12109375 430.302734375 609.090820312 421.211914062 603.030273438 c 0
 412.12109375 596.969726562 406.060546875 590.909179688 403.030273438 581.818359375 c 0
 400 572.727539062 396.969726562 563.63671875 396.969726562 548.484375 c 0
 396.969726562 527.272460938 390.909179688 506.060546875 378.788085938 493.939453125 c 0
 366.666992188 478.788085938 339.393554688 472.727539062 300 472.727539062 c 0
 266.666992188 472.727539062 242.423828125 475.7578125 227.272460938 478.788085938 c 0
 212.12109375 484.848632812 203.030273438 493.939453125 196.969726562 506.060546875 c 0
 190.909179688 518.181640625 190.909179688 536.36328125 190.909179688 557.576171875 c 0
 190.909179688 584.848632812 196.969726562 612.12109375 206.060546875 639.393554688 c 0
 215.151367188 666.666992188 233.333007812 693.939453125 257.576171875 718.181640625 c 0
 281.818359375 742.423828125 312.12109375 763.63671875 354.545898438 775.7578125 c 0
 390.909179688 790.909179688 439.393554688 800 496.969726562 800 c 0
 554.545898438 800 606.060546875 790.909179688 651.515625 775.7578125 c 0
 696.969726562 760.606445312 733.333007812 733.333007812 757.576171875 700 c 0
 784.848632812 663.63671875 796.969726562 615.151367188 796.969726562 554.545898438 c 0
 796.969726562 506.060546875 787.87890625 460.606445312 769.697265625 418.181640625 c 0
 754.545898438 375.7578125 727.272460938 345.454101562 693.939453125 330.302734375 c 1
 733.333007812 315.151367188 766.666992188 293.939453125 793.939453125 260.606445312 c 0
 821.211914062 230.302734375 833.333007812 184.848632812 833.333007812 130.302734375 c 2
 833.333007812 106.060546875 l 2
 833.333007812 33.3330078125 818.181640625 -27.2724609375 787.87890625 -72.7275390625 c 0
 757.576171875 -118.181640625 715.151367188 -148.484375 663.63671875 -169.697265625 c 0
 612.12109375 -190.909179688 554.545898438 -200 490.909179688 -200 c 0
EndSplineSet
Validated: 1
EndChar

StartChar: 4
Encoding: 52 52 5
Width: 1000
Flags: H
LayerCount: 2
Fore
SplineSet
633.333007812 -200 m 0
 606.060546875 -200 581.818359375 -193.939453125 560.606445312 -184.848632812 c 0
 539.393554688 -172.727539062 527.272460938 -157.576171875 527.272460938 -136.36328125 c 2
 527.272460938 9.0908203125 l 1
 206.060546875 9.0908203125 l 2
 184.848632812 9.0908203125 169.697265625 15.1513671875 154.545898438 27.2724609375 c 0
 139.393554688 39.3935546875 133.333007812 57.576171875 133.333007812 81.818359375 c 0
 133.333007812 87.87890625 133.333007812 93.939453125 136.36328125 100 c 0
 139.393554688 106.060546875 139.393554688 115.151367188 145.454101562 121.211914062 c 2
 463.63671875 742.423828125 l 2
 472.727539062 763.63671875 487.87890625 775.7578125 503.030273438 784.848632812 c 0
 518.181640625 793.939453125 536.36328125 796.969726562 551.515625 796.969726562 c 0
 563.63671875 796.969726562 578.788085938 793.939453125 593.939453125 787.87890625 c 0
 609.090820312 781.818359375 624.2421875 772.727539062 636.36328125 760.606445312 c 0
 648.484375 748.484375 654.545898438 733.333007812 654.545898438 718.181640625 c 0
 654.545898438 712.12109375 651.515625 703.030273438 648.484375 690.909179688 c 2
 406.060546875 206.060546875 l 1
 524.2421875 206.060546875 l 1
 524.2421875 303.030273438 l 2
 524.2421875 327.272460938 536.36328125 342.423828125 557.576171875 351.515625 c 0
 578.788085938 360.606445312 603.030273438 366.666992188 630.302734375 366.666992188 c 0
 657.576171875 366.666992188 681.818359375 360.606445312 703.030273438 351.515625 c 0
 724.2421875 342.423828125 736.36328125 324.2421875 736.36328125 303.030273438 c 2
 736.36328125 206.060546875 l 1
 793.939453125 206.060546875 l 2
 815.151367188 206.060546875 833.333007812 196.969726562 842.423828125 175.7578125 c 0
 854.545898438 154.545898438 857.576171875 133.333007812 857.576171875 109.090820312 c 0
 857.576171875 84.8486328125 851.515625 60.6064453125 836.36328125 42.423828125 c 0
 821.211914062 21.2119140625 809.090820312 12.12109375 790.909179688 12.12109375 c 2
 733.333007812 12.12109375 l 1
 733.333007812 -133.333007812 l 2
 733.333007812 -154.545898438 721.211914062 -172.727539062 700 -181.818359375 c 0
 684.848632812 -193.939453125 660.606445312 -200 633.333007812 -200 c 0
EndSplineSet
Validated: 1
EndChar

StartChar: 5
Encoding: 53 53 6
Width: 1000
Flags: H
LayerCount: 2
Fore
SplineSet
503.030273438 -200 m 0
 430.302734375 -200 369.697265625 -187.87890625 318.181640625 -163.63671875 c 0
 269.697265625 -139.393554688 230.302734375 -109.090820312 206.060546875 -69.697265625 c 0
 181.818359375 -30.302734375 166.666992188 9.0908203125 166.666992188 51.515625 c 0
 166.666992188 87.87890625 175.7578125 112.12109375 193.939453125 127.272460938 c 0
 212.12109375 139.393554688 239.393554688 145.454101562 272.727539062 145.454101562 c 0
 318.181640625 145.454101562 348.484375 136.36328125 360.606445312 121.211914062 c 0
 372.727539062 106.060546875 378.788085938 87.87890625 378.788085938 66.6669921875 c 0
 378.788085938 48.484375 384.848632812 33.3330078125 393.939453125 21.2119140625 c 0
 403.030273438 9.0908203125 418.181640625 0 436.36328125 -6.060546875 c 0
 454.545898438 -12.12109375 475.7578125 -15.1513671875 496.969726562 -15.1513671875 c 0
 536.36328125 -15.1513671875 566.666992188 -6.060546875 587.87890625 15.1513671875 c 0
 609.090820312 36.36328125 621.211914062 66.6669921875 621.211914062 112.12109375 c 2
 621.211914062 136.36328125 l 2
 621.211914062 181.818359375 609.090820312 215.151367188 587.87890625 236.36328125 c 0
 566.666992188 257.576171875 536.36328125 269.697265625 500 269.697265625 c 2
 293.939453125 269.697265625 l 2
 263.63671875 269.697265625 242.423828125 275.7578125 230.302734375 290.909179688 c 0
 218.181640625 306.060546875 212.12109375 327.272460938 212.12109375 351.515625 c 0
 212.12109375 357.576171875 212.12109375 366.666992188 212.12109375 369.697265625 c 0
 212.12109375 375.7578125 212.12109375 381.818359375 215.151367188 387.87890625 c 2
 251.515625 733.333007812 l 2
 254.545898438 754.545898438 257.576171875 769.697265625 263.63671875 781.818359375 c 0
 269.697265625 793.939453125 278.788085938 800 290.909179688 800 c 2
 724.2421875 800 l 2
 742.423828125 800 757.576171875 787.87890625 769.697265625 769.697265625 c 0
 778.788085938 751.515625 784.848632812 730.302734375 784.848632812 706.060546875 c 0
 784.848632812 684.848632812 778.788085938 663.63671875 769.697265625 642.423828125 c 0
 760.606445312 624.2421875 745.454101562 612.12109375 724.2421875 612.12109375 c 2
 424.2421875 612.12109375 l 1
 412.12109375 430.302734375 l 1
 500 430.302734375 l 2
 563.63671875 430.302734375 618.181640625 421.211914062 669.697265625 403.030273438 c 0
 721.211914062 384.848632812 760.606445312 351.515625 787.87890625 309.090820312 c 0
 818.181640625 266.666992188 833.333007812 209.090820312 833.333007812 136.36328125 c 2
 833.333007812 112.12109375 l 2
 833.333007812 36.36328125 818.181640625 -24.2421875 787.87890625 -69.697265625 c 0
 757.576171875 -115.151367188 718.181640625 -148.484375 669.697265625 -169.697265625 c 0
 618.181640625 -190.909179688 563.63671875 -200 503.030273438 -200 c 0
EndSplineSet
Validated: 1
EndChar

StartChar: 6
Encoding: 54 54 7
Width: 1000
Flags: H
LayerCount: 2
Fore
SplineSet
500 -200 m 0
 436.36328125 -200 381.818359375 -190.909179688 330.302734375 -169.697265625 c 0
 278.788085938 -148.484375 239.393554688 -115.151367188 209.090820312 -66.6669921875 c 0
 178.788085938 -18.181640625 163.63671875 42.423828125 163.63671875 121.211914062 c 2
 163.63671875 478.788085938 l 2
 166.666992188 557.576171875 181.818359375 618.181640625 212.12109375 666.666992188 c 0
 242.423828125 715.151367188 284.848632812 748.484375 336.36328125 769.697265625 c 0
 387.87890625 790.909179688 445.454101562 800 512.12109375 800 c 0
 569.697265625 800 618.181640625 790.909179688 657.576171875 775.7578125 c 0
 696.969726562 760.606445312 730.302734375 739.393554688 757.576171875 715.151367188 c 0
 784.848632812 690.909179688 803.030273438 663.63671875 815.151367188 633.333007812 c 0
 827.272460938 603.030273438 833.333007812 575.7578125 833.333007812 545.454101562 c 0
 833.333007812 512.12109375 824.2421875 490.909179688 809.090820312 478.788085938 c 0
 793.939453125 466.666992188 766.666992188 460.606445312 733.333007812 460.606445312 c 0
 703.030273438 460.606445312 678.788085938 466.666992188 657.576171875 475.7578125 c 0
 636.36328125 484.848632812 624.2421875 506.060546875 624.2421875 536.36328125 c 0
 624.2421875 554.545898438 618.181640625 566.666992188 609.090820312 578.788085938 c 0
 596.969726562 590.909179688 584.848632812 600 566.666992188 606.060546875 c 0
 548.484375 612.12109375 530.302734375 615.151367188 509.090820312 615.151367188 c 0
 469.697265625 615.151367188 439.393554688 603.030273438 415.151367188 581.818359375 c 0
 393.939453125 560.606445312 381.818359375 524.2421875 381.818359375 478.788085938 c 2
 381.818359375 357.576171875 l 1
 403.030273438 381.818359375 430.302734375 396.969726562 457.576171875 406.060546875 c 0
 487.87890625 415.151367188 518.181640625 418.181640625 551.515625 418.181640625 c 0
 603.030273438 418.181640625 651.515625 409.090820312 693.939453125 390.909179688 c 0
 736.36328125 372.727539062 772.727539062 345.454101562 796.969726562 303.030273438 c 0
 824.2421875 260.606445312 836.36328125 203.030273438 836.36328125 133.333007812 c 2
 836.36328125 121.211914062 l 2
 836.36328125 42.423828125 821.211914062 -18.181640625 790.909179688 -66.6669921875 c 0
 760.606445312 -115.151367188 721.211914062 -148.484375 672.727539062 -169.697265625 c 0
 618.181640625 -190.909179688 563.63671875 -200 500 -200 c 0
500 -30.302734375 m 0
 539.393554688 -30.302734375 566.666992188 -18.181640625 587.87890625 3.0302734375 c 0
 609.090820312 24.2421875 621.211914062 57.576171875 621.211914062 106.060546875 c 2
 621.211914062 118.181640625 l 2
 621.211914062 166.666992188 609.090820312 203.030273438 587.87890625 224.2421875 c 0
 566.666992188 245.454101562 536.36328125 254.545898438 496.969726562 254.545898438 c 0
 460.606445312 254.545898438 430.302734375 245.454101562 409.090820312 227.272460938 c 0
 387.87890625 209.090820312 375.7578125 175.7578125 375.7578125 130.302734375 c 2
 375.7578125 106.060546875 l 2
 375.7578125 57.576171875 387.87890625 24.2421875 409.090820312 3.0302734375 c 0
 433.333007812 -18.181640625 463.63671875 -30.302734375 500 -30.302734375 c 0
EndSplineSet
Validated: 1
EndChar

StartChar: 7
Encoding: 55 55 8
Width: 1000
Flags: H
LayerCount: 2
Fore
SplineSet
412.12109375 -200 m 0
 390.909179688 -200 369.697265625 -193.939453125 348.484375 -184.848632812 c 0
 327.272460938 -175.7578125 312.12109375 -163.63671875 296.969726562 -145.454101562 c 0
 284.848632812 -130.302734375 278.788085938 -112.12109375 278.788085938 -90.9091796875 c 0
 278.788085938 -78.7880859375 281.818359375 -66.6669921875 287.87890625 -54.5458984375 c 2
 621.211914062 524.2421875 l 1
 621.211914062 615.151367188 l 1
 378.788085938 615.151367188 l 1
 378.788085938 524.2421875 l 2
 378.788085938 506.060546875 366.666992188 490.909179688 345.454101562 478.788085938 c 0
 324.2421875 466.666992188 300 460.606445312 269.697265625 460.606445312 c 0
 239.393554688 460.606445312 218.181640625 466.666992188 196.969726562 478.788085938 c 0
 175.7578125 490.909179688 166.666992188 506.060546875 166.666992188 524.2421875 c 2
 166.666992188 733.333007812 l 2
 166.666992188 748.484375 175.7578125 763.63671875 196.969726562 778.788085938 c 0
 215.151367188 790.909179688 236.36328125 800 260.606445312 800 c 2
 742.423828125 800 l 2
 763.63671875 800 784.848632812 793.939453125 803.030273438 778.788085938 c 0
 824.2421875 766.666992188 833.333007812 751.515625 833.333007812 733.333007812 c 2
 833.333007812 563.63671875 l 2
 833.333007812 545.454101562 830.302734375 527.272460938 821.211914062 503.030273438 c 0
 812.12109375 478.788085938 803.030273438 457.576171875 790.909179688 436.36328125 c 2
 472.727539062 -172.727539062 l 2
 463.63671875 -190.909179688 442.423828125 -200 412.12109375 -200 c 0
EndSplineSet
Validated: 1
EndChar

StartChar: 8
Encoding: 56 56 9
Width: 1000
Flags: H
LayerCount: 2
Fore
SplineSet
500 -200 m 0
 436.36328125 -200 381.818359375 -190.909179688 330.302734375 -172.727539062 c 0
 278.788085938 -154.545898438 239.393554688 -124.2421875 209.090820312 -81.818359375 c 0
 178.788085938 -39.3935546875 163.63671875 12.12109375 163.63671875 81.818359375 c 2
 163.63671875 96.9697265625 l 2
 163.63671875 166.666992188 178.788085938 221.211914062 209.090820312 263.63671875 c 0
 239.393554688 306.060546875 281.818359375 333.333007812 330.302734375 351.515625 c 1
 290.909179688 363.63671875 257.576171875 387.87890625 233.333007812 424.2421875 c 0
 212.12109375 457.576171875 200 503.030273438 200 557.576171875 c 0
 200 615.151367188 212.12109375 660.606445312 239.393554688 696.969726562 c 0
 266.666992188 733.333007812 300 757.576171875 345.454101562 775.7578125 c 0
 390.909179688 790.909179688 442.423828125 800 500 800 c 0
 557.576171875 800 609.090820312 790.909179688 654.545898438 775.7578125 c 0
 700 757.576171875 733.333007812 733.333007812 760.606445312 696.969726562 c 0
 787.87890625 660.606445312 800 615.151367188 800 557.576171875 c 0
 800 500 787.87890625 457.576171875 763.63671875 421.211914062 c 0
 739.393554688 387.87890625 706.060546875 363.63671875 666.666992188 348.484375 c 1
 718.181640625 330.302734375 757.576171875 303.030273438 787.87890625 260.606445312 c 0
 818.181640625 218.181640625 833.333007812 163.63671875 833.333007812 93.939453125 c 2
 833.333007812 78.7880859375 l 2
 833.333007812 12.12109375 818.181640625 -42.423828125 787.87890625 -84.8486328125 c 0
 757.576171875 -127.272460938 718.181640625 -154.545898438 669.697265625 -175.7578125 c 0
 618.181640625 -190.909179688 563.63671875 -200 500 -200 c 0
500 -30.302734375 m 0
 539.393554688 -30.302734375 569.697265625 -18.181640625 590.909179688 3.0302734375 c 0
 612.12109375 24.2421875 621.211914062 60.6064453125 621.211914062 106.060546875 c 2
 621.211914062 136.36328125 l 2
 621.211914062 181.818359375 609.090820312 212.12109375 587.87890625 233.333007812 c 0
 566.666992188 254.545898438 536.36328125 263.63671875 500 263.63671875 c 0
 463.63671875 263.63671875 433.333007812 254.545898438 409.090820312 233.333007812 c 0
 387.87890625 212.12109375 375.7578125 178.788085938 375.7578125 136.36328125 c 2
 375.7578125 106.060546875 l 2
 375.7578125 57.576171875 387.87890625 24.2421875 409.090820312 3.0302734375 c 0
 433.333007812 -21.2119140625 463.63671875 -30.302734375 500 -30.302734375 c 0
500 433.333007812 m 0
 530.302734375 433.333007812 554.545898438 439.393554688 572.727539062 454.545898438 c 0
 590.909179688 469.697265625 596.969726562 493.939453125 596.969726562 530.302734375 c 0
 596.969726562 563.63671875 587.87890625 590.909179688 572.727539062 606.060546875 c 0
 554.545898438 621.211914062 533.333007812 630.302734375 500 630.302734375 c 0
 469.697265625 630.302734375 445.454101562 621.211914062 427.272460938 606.060546875 c 0
 409.090820312 590.909179688 403.030273438 563.63671875 403.030273438 530.302734375 c 0
 403.030273438 493.939453125 412.12109375 469.697265625 427.272460938 454.545898438 c 0
 445.454101562 439.393554688 469.697265625 433.333007812 500 433.333007812 c 0
EndSplineSet
Validated: 1
EndChar

StartChar: 9
Encoding: 57 57 10
Width: 1000
Flags: H
LayerCount: 2
Fore
SplineSet
487.87890625 -200 m 0
 430.302734375 -200 381.818359375 -190.909179688 342.423828125 -175.7578125 c 0
 303.030273438 -160.606445312 269.697265625 -139.393554688 242.423828125 -115.151367188 c 0
 215.151367188 -90.9091796875 196.969726562 -63.63671875 184.848632812 -33.3330078125 c 0
 172.727539062 -3.0302734375 166.666992188 24.2421875 166.666992188 54.5458984375 c 0
 166.666992188 87.87890625 175.7578125 109.090820312 190.909179688 121.211914062 c 0
 206.060546875 133.333007812 233.333007812 139.393554688 266.666992188 139.393554688 c 0
 296.969726562 139.393554688 321.211914062 133.333007812 342.423828125 124.2421875 c 0
 363.63671875 115.151367188 375.7578125 93.939453125 375.7578125 60.6064453125 c 0
 375.7578125 42.423828125 381.818359375 30.302734375 390.909179688 18.181640625 c 0
 403.030273438 6.060546875 415.151367188 -3.0302734375 433.333007812 -9.0908203125 c 0
 451.515625 -15.1513671875 469.697265625 -18.181640625 490.909179688 -18.181640625 c 0
 530.302734375 -18.181640625 560.606445312 -6.060546875 584.848632812 15.1513671875 c 0
 609.090820312 36.36328125 618.181640625 72.7275390625 618.181640625 118.181640625 c 2
 618.181640625 239.393554688 l 1
 596.969726562 215.151367188 569.697265625 200 542.423828125 190.909179688 c 0
 512.12109375 181.818359375 481.818359375 178.788085938 448.484375 178.788085938 c 0
 396.969726562 178.788085938 348.484375 187.87890625 306.060546875 206.060546875 c 0
 266.666992188 224.2421875 230.302734375 254.545898438 206.060546875 296.969726562 c 0
 178.788085938 339.393554688 166.666992188 396.969726562 166.666992188 466.666992188 c 2
 166.666992188 478.788085938 l 2
 166.666992188 557.576171875 181.818359375 618.181640625 212.12109375 666.666992188 c 0
 242.423828125 715.151367188 281.818359375 748.484375 330.302734375 769.697265625 c 0
 381.818359375 790.909179688 436.36328125 800 500 800 c 0
 563.63671875 800 618.181640625 790.909179688 669.697265625 769.697265625 c 0
 721.211914062 748.484375 760.606445312 715.151367188 790.909179688 666.666992188 c 0
 821.211914062 618.181640625 836.36328125 557.576171875 836.36328125 478.788085938 c 2
 836.36328125 118.181640625 l 2
 836.36328125 39.3935546875 821.211914062 -21.2119140625 790.909179688 -69.697265625 c 0
 760.606445312 -118.181640625 718.181640625 -151.515625 666.666992188 -172.727539062 c 0
 612.12109375 -190.909179688 551.515625 -200 487.87890625 -200 c 0
500 345.454101562 m 0
 536.36328125 345.454101562 566.666992188 354.545898438 587.87890625 375.7578125 c 0
 609.090820312 393.939453125 621.211914062 427.272460938 621.211914062 472.727539062 c 2
 621.211914062 496.969726562 l 2
 621.211914062 545.454101562 609.090820312 578.788085938 587.87890625 600 c 0
 566.666992188 621.211914062 536.36328125 633.333007812 496.969726562 633.333007812 c 0
 457.576171875 633.333007812 430.302734375 621.211914062 409.090820312 600 c 0
 387.87890625 578.788085938 375.7578125 545.454101562 375.7578125 496.969726562 c 2
 375.7578125 484.848632812 l 2
 375.7578125 436.36328125 387.87890625 400 409.090820312 378.788085938 c 0
 430.302734375 354.545898438 460.606445312 345.454101562 500 345.454101562 c 0
EndSplineSet
Validated: 1
EndChar

StartChar: at
Encoding: 64 64 11
Width: 1000
Flags: H
LayerCount: 2
Fore
SplineSet
500 800 m 0
 775.7578125 800 993.939453125 621.211914062 990.909179688 348.484375 c 0
 990.909179688 196.969726562 909.090820312 51.515625 690.909179688 51.515625 c 0
 633.333007812 51.515625 569.697265625 51.515625 551.515625 121.211914062 c 1
 518.181640625 72.7275390625 457.576171875 42.423828125 403.030273438 42.423828125 c 0
 284.848632812 42.423828125 212.12109375 124.2421875 212.12109375 254.545898438 c 0
 212.12109375 436.36328125 339.393554688 560.606445312 487.87890625 560.606445312 c 0
 524.2421875 560.606445312 575.7578125 554.545898438 606.060546875 518.181640625 c 1
 606.060546875 518.181640625 l 1
 609.090820312 533.333007812 618.181640625 542.423828125 633.333007812 542.423828125 c 2
 724.2421875 542.423828125 l 2
 751.515625 542.423828125 775.7578125 515.151367188 769.697265625 484.848632812 c 2
 724.2421875 239.393554688 l 2
 718.181640625 206.060546875 718.181640625 178.788085938 751.515625 178.788085938 c 0
 824.2421875 187.87890625 866.666992188 269.697265625 866.666992188 348.484375 c 0
 866.666992188 554.545898438 700 669.697265625 500 669.697265625 c 0
 296.969726562 669.697265625 133.333007812 503.030273438 133.333007812 300 c 0
 133.333007812 96.9697265625 296.969726562 -69.697265625 500 -69.697265625 c 0
 569.697265625 -69.697265625 639.393554688 -51.515625 696.969726562 -12.12109375 c 0
 718.181640625 3.0302734375 745.454101562 -3.0302734375 760.606445312 -21.2119140625 c 2
 781.818359375 -45.4541015625 l 2
 800 -69.697265625 793.939453125 -103.030273438 769.697265625 -118.181640625 c 0
 690.909179688 -172.727539062 596.969726562 -200 500 -200 c 0
 227.272460938 -200 6.060546875 24.2421875 6.060546875 300 c 0
 6.060546875 575.7578125 227.272460938 800 500 800 c 0
457.576171875 184.848632812 m 0
 506.060546875 184.848632812 572.727539062 242.423828125 569.697265625 330.302734375 c 0
 569.697265625 381.818359375 545.454101562 412.12109375 500 412.12109375 c 0
 445.454101562 412.12109375 384.848632812 357.576171875 384.848632812 266.666992188 c 0
 384.848632812 215.151367188 412.12109375 184.848632812 457.576171875 184.848632812 c 0
EndSplineSet
Validated: 37
EndChar

StartChar: x
Encoding: 120 120 12
Width: 1000
Flags: H
LayerCount: 2
Fore
SplineSet
500 448.484375 m 1
 727.272460938 672.727539062 l 2
 757.576171875 700 803.030273438 700 830.302734375 672.727539062 c 2
 881.818359375 621.211914062 l 2
 909.090820312 593.939453125 909.090820312 548.484375 881.818359375 521.211914062 c 2
 654.545898438 296.969726562 l 1
 881.818359375 72.7275390625 l 2
 909.090820312 45.4541015625 909.090820312 -0 881.818359375 -27.2724609375 c 2
 830.302734375 -78.7880859375 l 2
 800 -106.060546875 754.545898438 -106.060546875 727.272460938 -78.7880859375 c 2
 500 145.454101562 l 1
 272.727539062 -78.7880859375 l 2
 242.423828125 -106.060546875 196.969726562 -106.060546875 169.697265625 -78.7880859375 c 2
 118.181640625 -27.2724609375 l 2
 90.9091796875 0 90.9091796875 45.4541015625 118.181640625 72.7275390625 c 2
 345.454101562 300 l 1
 118.181640625 524.2421875 l 2
 90.9091796875 551.515625 90.9091796875 596.969726562 118.181640625 624.2421875 c 2
 169.697265625 675.7578125 l 2
 196.969726562 703.030273438 242.423828125 703.030273438 272.727539062 675.7578125 c 2
 500 448.484375 l 1
EndSplineSet
Validated: 33
EndChar

StartChar: copyright
Encoding: 169 169 13
Width: 1000
Flags: H
LayerCount: 2
Fore
SplineSet
496.969726562 800 m 0
 769.697265625 800 990.909179688 575.7578125 990.909179688 300 c 0
 990.909179688 24.2421875 769.697265625 -200 496.969726562 -200 c 0
 224.2421875 -200 3.0302734375 24.2421875 3.0302734375 300 c 0
 3.0302734375 575.7578125 224.2421875 800 496.969726562 800 c 0
730.302734375 100 m 0
 733.333007812 103.030273438 736.36328125 109.090820312 733.333007812 115.151367188 c 0
 733.333007812 121.211914062 730.302734375 127.272460938 727.272460938 130.302734375 c 2
 678.788085938 196.969726562 l 2
 669.697265625 209.090820312 651.515625 212.12109375 642.423828125 200 c 2
 642.423828125 200 587.87890625 142.423828125 512.12109375 142.423828125 c 0
 415.151367188 142.423828125 363.63671875 224.2421875 363.63671875 303.030273438 c 0
 363.63671875 390.909179688 421.211914062 457.576171875 512.12109375 457.576171875 c 0
 584.848632812 457.576171875 636.36328125 409.090820312 636.36328125 409.090820312 c 2
 648.484375 400 663.63671875 403.030273438 672.727539062 415.151367188 c 2
 718.181640625 484.848632812 l 2
 721.211914062 487.87890625 721.211914062 490.909179688 721.211914062 496.969726562 c 0
 721.211914062 503.030273438 718.181640625 509.090820312 715.151367188 512.12109375 c 0
 712.12109375 515.151367188 642.423828125 590.909179688 509.090820312 590.909179688 c 0
 348.484375 590.909179688 224.2421875 466.666992188 224.2421875 303.030273438 c 0
 224.2421875 136.36328125 342.423828125 9.0908203125 512.12109375 9.0908203125 c 0
 651.515625 9.0908203125 727.272460938 96.9697265625 730.302734375 100 c 0
EndSplineSet
Validated: 33
EndChar

StartChar: square
Encoding: 57344 57344 14
Width: 1000
Flags: H
LayerCount: 2
Fore
SplineSet
945.454101562 648.484375 m 2
 945.454101562 -48.484375 l 2
 945.454101562 -100 903.030273438 -142.423828125 851.515625 -142.423828125 c 2
 151.515625 -142.423828125 l 2
 100 -142.423828125 57.576171875 -100 57.576171875 -48.484375 c 2
 57.576171875 648.484375 l 2
 57.576171875 700 100 742.423828125 151.515625 742.423828125 c 2
 848.484375 742.423828125 l 2
 903.030273438 742.423828125 945.454101562 700 945.454101562 648.484375 c 2
EndSplineSet
Validated: 1
EndChar

StartChar: polygon
Encoding: 57345 57345 15
Width: 1000
Flags: H
LayerCount: 2
Fore
SplineSet
987.87890625 342.423828125 m 2
 1003.03027344 315.151367188 1003.03027344 281.818359375 987.87890625 254.545898438 c 2
 781.818359375 -96.9697265625 l 2
 766.666992188 -124.2421875 736.36328125 -139.393554688 706.060546875 -139.393554688 c 2
 293.939453125 -139.393554688 l 2
 263.63671875 -139.393554688 233.333007812 -121.211914062 218.181640625 -96.9697265625 c 2
 12.12109375 254.545898438 l 2
 -3.0302734375 281.818359375 -3.0302734375 315.151367188 12.12109375 342.423828125 c 2
 218.181640625 696.969726562 l 2
 233.333007812 724.2421875 263.63671875 739.393554688 293.939453125 739.393554688 c 2
 706.060546875 739.393554688 l 2
 736.36328125 739.393554688 766.666992188 721.211914062 781.818359375 696.969726562 c 2
 987.87890625 342.423828125 l 2
EndSplineSet
Validated: 33
EndChar

StartChar: triangle
Encoding: 57346 57346 16
Width: 1000
Flags: H
LayerCount: 2
Fore
SplineSet
987.87890625 -21.2119140625 m 2
 1021.21191406 -75.7578125 978.788085938 -145.454101562 915.151367188 -145.454101562 c 2
 84.8486328125 -145.454101562 l 2
 21.2119140625 -145.454101562 -18.181640625 -75.7578125 12.12109375 -21.2119140625 c 2
 427.272460938 703.030273438 l 2
 460.606445312 757.576171875 539.393554688 757.576171875 572.727539062 703.030273438 c 2
 987.87890625 -21.2119140625 l 2
EndSplineSet
Validated: 33
EndChar

StartChar: circle
Encoding: 57347 57347 17
Width: 1000
Flags: H
LayerCount: 2
Fore
SplineSet
57.576171875 300 m 0
 57.576171875 544.34375 255.65625 742.423828125 500 742.423828125 c 0
 744.34375 742.423828125 942.423828125 544.34375 942.423828125 300 c 0
 942.423828125 55.65625 744.34375 -142.423828125 500 -142.423828125 c 0
 255.65625 -142.423828125 57.576171875 55.65625 57.576171875 300 c 0
EndSplineSet
Validated: 1
EndChar

StartChar: square_fill
Encoding: 57348 57348 18
Width: 1000
Flags: H
LayerCount: 2
Fore
SplineSet
1000 800 m 1
 1000 -200 l 1
 1000 -200 1000 -200 1000 -200 c 1
 0 -200 l 1
 0 800 l 1
 0 800 0 800 0 800 c 1
 1000 800 l 1
EndSplineSet
Validated: 5
EndChar

StartChar: line
Encoding: 57349 57349 19
Width: 1000
Flags: H
LayerCount: 2
Fore
SplineSet
963.63671875 254.545898438 m 2
 36.36328125 254.545898438 l 2
 18.181640625 254.545898438 0 269.697265625 0 290.909179688 c 2
 0 309.090820312 l 2
 0 327.272460938 18.181640625 345.454101562 36.36328125 345.454101562 c 2
 960.606445312 345.454101562 l 2
 981.818359375 345.454101562 996.969726562 327.272460938 996.969726562 309.090820312 c 2
 996.969726562 290.909179688 l 2
 1000 269.697265625 981.818359375 254.545898438 963.63671875 254.545898438 c 2
EndSplineSet
Validated: 33
EndChar

StartChar: knight_pen
Encoding: 57350 57350 20
Width: 1000
Flags: H
LayerCount: 2
Fore
SplineSet
664.571289062 -200 m 1
 1000 129.857421875 l 1
 1000 -200 l 1
 664.571289062 -200 l 1
0 125.286132812 m 1
 330.857421875 -200 l 1
 0 -200 l 1
 0 125.286132812 l 1
161.713867188 433.428710938 m 1
 161.713867188 349.571289062 l 1
 458 349.571289062 l 1
 458 -200 l 1
 0 250.428710938 l 1
 0 478.142578125 l 1
 166 800 l 1
 834 800 l 1
 1000 478.142578125 l 1
 1000 254.857421875 l 1
 542 -195.571289062 l 1
 542 349.571289062 l 1
 838.286132812 349.571289062 l 1
 838.286132812 433.428710938 l 1
 161.713867188 433.428710938 l 1
EndSplineSet
Validated: 1
EndChar

StartChar: shapes
Encoding: 57351 57351 21
Width: 1000
Flags: H
LayerCount: 2
Fore
SplineSet
745.151367188 370.302734375 m 2
 748.357421875 364.46875 750.180664062 357.76953125 750.180664062 350.647460938 c 0
 750.180664062 328.205078125 732.087890625 309.916015625 709.697265625 309.697265625 c 2
 303.030273438 309.697265625 l 2
 280.70703125 309.799804688 262.615234375 327.955078125 262.615234375 350.302734375 c 0
 262.615234375 357.5546875 264.541992188 364.408203125 267.87890625 370.302734375 c 2
 470.302734375 723.939453125 l 2
 477.287109375 736.228515625 490.498046875 744.525390625 505.631835938 744.525390625 c 0
 520.765625 744.525390625 533.924804688 736.228515625 540.909179688 723.939453125 c 2
 745.151367188 370.302734375 l 2
460.606445312 217.272460938 m 2
 460.606445312 -101.818359375 l 2
 460.606445312 -125.734375 441.189453125 -145.151367188 417.272460938 -145.151367188 c 2
 98.484375 -145.151367188 l 2
 98.3818359375 -145.15234375 98.279296875 -145.15234375 98.17578125 -145.15234375 c 0
 74.259765625 -145.15234375 54.8486328125 -125.734375 54.8486328125 -101.818359375 c 2
 54.8486328125 217.272460938 l 2
 54.8486328125 241.189453125 74.265625 260.606445312 98.181640625 260.606445312 c 0
 98.28515625 260.606445312 98.3818359375 260.606445312 98.484375 260.606445312 c 2
 417.272460938 260.606445312 l 2
 441.189453125 260.606445312 460.606445312 241.189453125 460.606445312 217.272460938 c 2
539.090820312 57.87890625 m 0
 539.090820312 170.009765625 629.990234375 260.909179688 742.12109375 260.909179688 c 0
 854.251953125 260.909179688 945.151367188 170.009765625 945.151367188 57.87890625 c 0
 945.151367188 -54.251953125 854.251953125 -145.151367188 742.12109375 -145.151367188 c 0
 629.990234375 -145.151367188 539.090820312 -54.251953125 539.090820312 57.87890625 c 0
EndSplineSet
Validated: 1
EndChar

StartChar: eye_dropper
Encoding: 57376 57376 22
Width: 1000
Flags: H
LayerCount: 2
Fore
SplineSet
112.12109375 148.484375 m 2
 357.576171875 393.939453125 l 1
 603.030273438 145.454101562 l 1
 357.576171875 -103.030273438 l 2
 333.333007812 -127.272460938 303.030273438 -139.393554688 269.697265625 -139.393554688 c 2
 181.818359375 -139.393554688 l 1
 75.7578125 -200 l 1
 15.1513671875 -136.36328125 l 1
 75.7578125 -27.2724609375 l 1
 75.7578125 60.6064453125 l 2
 75.7578125 93.939453125 87.87890625 124.2421875 112.12109375 148.484375 c 2
945.454101562 745.454101562 m 0
 1018.18164062 669.697265625 1018.18164062 551.515625 945.454101562 478.788085938 c 2
 796.969726562 327.272460938 l 1
 821.211914062 303.030273438 l 2
 839.393554688 284.848632812 839.393554688 254.545898438 821.211914062 236.36328125 c 2
 742.423828125 157.576171875 l 2
 724.2421875 139.393554688 693.939453125 139.393554688 675.7578125 157.576171875 c 2
 363.63671875 472.727539062 l 2
 345.454101562 490.909179688 345.454101562 521.211914062 363.63671875 539.393554688 c 2
 442.423828125 618.181640625 l 2
 460.606445312 636.36328125 490.909179688 636.36328125 509.090820312 618.181640625 c 2
 536.36328125 593.939453125 l 1
 684.848632812 745.454101562 l 2
 754.545898438 818.181640625 872.727539062 818.181640625 945.454101562 745.454101562 c 0
EndSplineSet
Validated: 33
EndChar

StartChar: brush
Encoding: 57377 57377 23
Width: 1000
Flags: H
LayerCount: 2
Fore
SplineSet
327.272460938 193.939453125 m 2
 493.939453125 48.484375 l 2
 496.969726562 42.423828125 496.969726562 36.36328125 496.969726562 30.302734375 c 0
 496.969726562 -118.181640625 396.969726562 -203.030273438 251.515625 -203.030273438 c 0
 78.7880859375 -203.030273438 6.060546875 -60.6064453125 6.060546875 100 c 1
 24.2421875 87.87890625 90.9091796875 33.3330078125 112.12109375 33.3330078125 c 0
 124.2421875 33.3330078125 136.36328125 39.3935546875 139.393554688 51.515625 c 0
 178.788085938 157.576171875 248.484375 187.87890625 327.272460938 193.939453125 c 2
887.87890625 800 m 0
 942.423828125 800 993.939453125 757.576171875 990.909179688 703.030273438 c 0
 990.909179688 669.697265625 978.788085938 639.393554688 963.63671875 612.12109375 c 0
 745.454101562 200 678.788085938 112.12109375 557.576171875 112.12109375 c 0
 542.423828125 112.12109375 530.302734375 115.151367188 515.151367188 118.181640625 c 2
 390.909179688 221.211914062 l 2
 378.788085938 245.454101562 372.727539062 269.697265625 372.727539062 296.969726562 c 0
 372.727539062 403.030273438 415.151367188 409.090820312 809.090820312 766.666992188 c 0
 830.302734375 787.87890625 857.576171875 800 887.87890625 800 c 0
EndSplineSet
Validated: 33
EndChar

StartChar: pencil
Encoding: 57378 57378 24
Width: 1000
Flags: H
LayerCount: 2
Fore
SplineSet
566.666992188 615.151367188 m 1
 812.12109375 366.666992188 l 1
 278.788085938 -172.727539062 l 1
 60.6064453125 -196.969726562 l 2
 30.302734375 -200 6.060546875 -175.7578125 9.0908203125 -145.454101562 c 2
 33.3330078125 75.7578125 l 1
 566.666992188 615.151367188 l 1
963.63671875 651.515625 m 2
 1000 615.151367188 1000 557.576171875 963.63671875 521.211914062 c 2
 854.545898438 412.12109375 l 1
 609.090820312 660.606445312 l 1
 718.181640625 769.697265625 l 2
 754.545898438 806.060546875 812.12109375 806.060546875 848.484375 769.697265625 c 2
 963.63671875 651.515625 l 2
EndSplineSet
Validated: 33
EndChar

StartChar: pen
Encoding: 57379 57379 25
Width: 1000
Flags: H
LayerCount: 2
Fore
SplineSet
490.909179688 693.939453125 m 2
 654.545898438 527.272460938 l 1
 812.12109375 363.63671875 l 1
 433.333007812 -21.2119140625 l 2
 336.36328125 -121.211914062 203.030273438 -187.87890625 57.576171875 -203.030273438 c 0
 27.2724609375 -206.060546875 3.0302734375 -181.818359375 6.060546875 -151.515625 c 1
 6.060546875 -151.515625 l 1
 24.2421875 -3.0302734375 87.87890625 130.302734375 187.87890625 230.302734375 c 2
 478.788085938 527.272460938 l 1
 433.333007812 572.727539062 l 1
 236.36328125 372.727539062 l 2
 224.2421875 360.606445312 206.060546875 360.606445312 193.939453125 372.727539062 c 2
 151.515625 418.181640625 l 2
 139.393554688 430.302734375 139.393554688 451.515625 151.515625 463.63671875 c 2
 381.818359375 693.939453125 l 2
 412.12109375 724.2421875 460.606445312 724.2421875 490.909179688 693.939453125 c 2
966.666992188 654.545898438 m 2
 1003.03027344 618.181640625 1003.03027344 557.576171875 966.666992188 521.211914062 c 2
 857.576171875 412.12109375 l 1
 612.12109375 663.63671875 l 1
 721.211914062 772.727539062 l 2
 757.576171875 809.090820312 815.151367188 809.090820312 851.515625 772.727539062 c 2
 966.666992188 654.545898438 l 2
EndSplineSet
Validated: 33
EndChar

StartChar: marker
Encoding: 57380 57380 26
Width: 1000
Flags: H
LayerCount: 2
Fore
SplineSet
0 -118.181640625 m 1
 124.2421875 12.12109375 l 1
 251.515625 -112.12109375 l 1
 184.848632812 -178.788085938 l 1
 0 -118.181640625 l 1
230.302734375 330.302734375 m 2
 306.060546875 393.939453125 l 1
 624.2421875 75.7578125 l 1
 557.576171875 -3.0302734375 l 2
 539.393554688 -24.2421875 512.12109375 -33.3330078125 487.87890625 -24.2421875 c 2
 409.090820312 0 l 1
 315.151367188 -93.939453125 l 1
 139.393554688 84.8486328125 l 1
 233.333007812 178.788085938 l 1
 209.090820312 257.576171875 l 2
 206.060546875 266.666992188 206.060546875 272.727539062 206.060546875 278.788085938 c 0
 206.060546875 300 215.151367188 318.181640625 230.302734375 330.302734375 c 2
969.697265625 627.272460938 m 2
 1009.09082031 590.909179688 1009.09082031 530.302734375 975.7578125 487.87890625 c 2
 663.63671875 118.181640625 l 1
 351.515625 433.333007812 l 1
 715.151367188 748.484375 l 2
 757.576171875 784.848632812 818.181640625 784.848632812 854.545898438 745.454101562 c 2
 969.697265625 627.272460938 l 2
EndSplineSet
Validated: 33
EndChar

StartChar: pen_wing
Encoding: 57381 57381 27
Width: 1000
Flags: H
LayerCount: 2
Fore
SplineSet
993.939453125 800 m 1
 990.909179688 748.484375 969.697265625 539.393554688 887.87890625 339.393554688 c 1
 681.818359375 236.36328125 l 1
 839.393554688 236.36328125 l 1
 824.2421875 206.060546875 803.030273438 175.7578125 781.818359375 145.454101562 c 2
 500 48.484375 l 1
 693.939453125 48.484375 l 1
 627.272460938 -9.0908203125 542.423828125 -48.484375 439.393554688 -60.6064453125 c 0
 360.606445312 -69.697265625 278.788085938 -75.7578125 196.969726562 -75.7578125 c 2
 87.87890625 -187.87890625 l 2
 69.697265625 -206.060546875 39.3935546875 -206.060546875 21.2119140625 -187.87890625 c 0
 3.0302734375 -169.697265625 3.0302734375 -139.393554688 21.2119140625 -121.211914062 c 2
 518.181640625 381.818359375 l 2
 530.302734375 393.939453125 530.302734375 415.151367188 518.181640625 427.272460938 c 0
 506.060546875 439.393554688 487.87890625 439.393554688 475.7578125 427.272460938 c 2
 130.302734375 78.7880859375 l 1
 133.333007812 133.333007812 136.36328125 184.848632812 142.423828125 236.36328125 c 0
 190.909179688 724.2421875 893.939453125 793.939453125 993.939453125 800 c 1
EndSplineSet
Validated: 33
EndChar

StartChar: pen_path
Encoding: 57382 57382 28
Width: 1000
Flags: H
LayerCount: 2
Fore
SplineSet
269.697265625 527.272460938 m 2
 560.606445312 615.151367188 l 1
 806.060546875 363.63671875 l 1
 724.2421875 66.6669921875 l 2
 715.151367188 27.2724609375 684.848632812 -6.060546875 645.454101562 -18.181640625 c 2
 106.060546875 -200 l 1
 78.7880859375 -172.727539062 l 1
 369.697265625 121.211914062 l 2
 381.818359375 115.151367188 393.939453125 112.12109375 409.090820312 112.12109375 c 0
 460.606445312 112.12109375 503.030273438 154.545898438 503.030273438 206.060546875 c 0
 503.030273438 257.576171875 460.606445312 300 409.090820312 300 c 0
 357.576171875 300 315.151367188 257.576171875 315.151367188 206.060546875 c 0
 315.151367188 193.939453125 318.181640625 178.788085938 324.2421875 166.666992188 c 2
 33.3330078125 -127.272460938 l 1
 6.060546875 -100 l 1
 184.848632812 445.454101562 l 2
 200 484.848632812 230.302734375 515.151367188 269.697265625 527.272460938 c 2
966.666992188 654.545898438 m 2
 1003.03027344 618.181640625 1003.03027344 557.576171875 969.697265625 521.211914062 c 2
 860.606445312 412.12109375 l 1
 612.12109375 663.63671875 l 1
 721.211914062 772.727539062 l 2
 757.576171875 809.090820312 815.151367188 809.090820312 851.515625 772.727539062 c 2
 966.666992188 654.545898438 l 2
EndSplineSet
Validated: 33
EndChar

StartChar: stationery
Encoding: 57383 57383 29
Width: 1000
Flags: H
LayerCount: 2
Fore
SplineSet
693.939453125 563.63671875 m 2
 706.060546875 557.576171875 715.151367188 548.484375 721.211914062 536.36328125 c 0
 742.423828125 506.060546875 742.423828125 487.87890625 715.151367188 393.939453125 c 1
 675.7578125 433.333007812 600 424.2421875 548.484375 424.2421875 c 1
 551.515625 521.211914062 560.606445312 548.484375 615.151367188 572.727539062 c 2
 693.939453125 563.63671875 l 2
639.393554688 778.788085938 m 0
 712.12109375 827.272460938 781.818359375 787.87890625 824.2421875 715.151367188 c 1
 812.12109375 715.151367188 769.697265625 721.211914062 760.606445312 715.151367188 c 0
 754.545898438 712.12109375 754.545898438 706.060546875 754.545898438 700 c 0
 766.666992188 645.454101562 745.454101562 615.151367188 715.151367188 590.909179688 c 2
 715.151367188 590.909179688 606.060546875 606.060546875 606.060546875 606.060546875 c 2
 557.576171875 666.666992188 575.7578125 739.393554688 639.393554688 778.788085938 c 0
466.666992188 727.272460938 m 1
 396.969726562 727.272460938 l 1
 396.969726562 763.63671875 l 1
 463.63671875 800 l 1
 466.666992188 727.272460938 l 1
524.2421875 542.423828125 m 1
 518.181640625 424.2421875 l 1
 357.576171875 424.2421875 l 1
 345.454101562 542.423828125 l 1
 524.2421875 542.423828125 l 1
527.272460938 566.666992188 m 1
 527.272460938 566.666992188 342.423828125 566.666992188 342.423828125 566.666992188 c 1
 342.423828125 584.848632812 327.272460938 621.211914062 351.515625 633.333007812 c 2
 381.818359375 648.484375 l 1
 381.818359375 703.030273438 l 1
 484.848632812 703.030273438 l 1
 484.848632812 703.030273438 484.848632812 648.484375 484.848632812 648.484375 c 2
 490.909179688 645.454101562 518.181640625 630.302734375 521.211914062 627.272460938 c 0
 536.36328125 615.151367188 527.272460938 581.818359375 527.272460938 566.666992188 c 1
184.848632812 412.12109375 m 1
 133.333007812 581.818359375 l 1
 266.666992188 618.181640625 l 1
 266.666992188 618.181640625 324.2421875 424.2421875 324.2421875 424.2421875 c 1
 287.87890625 421.211914062 215.151367188 430.302734375 184.848632812 412.12109375 c 1
257.576171875 642.423828125 m 1
 127.272460938 603.030273438 l 1
 112.12109375 660.606445312 l 2
 106.060546875 681.818359375 118.181640625 700 136.36328125 706.060546875 c 2
 196.969726562 724.2421875 l 2
 218.181640625 730.302734375 236.36328125 718.181640625 242.423828125 700 c 2
 257.576171875 642.423828125 l 1
415.151367188 -160.606445312 m 2
 415.151367188 -175.7578125 421.211914062 -187.87890625 427.272460938 -200 c 1
 293.939453125 -200 l 2
 254.545898438 -200 221.211914062 -172.727539062 218.181640625 -133.333007812 c 2
 157.576171875 290.909179688 l 2
 148.484375 336.36328125 184.848632812 378.788085938 233.333007812 378.788085938 c 2
 636.36328125 378.788085938 l 2
 681.818359375 378.788085938 718.181640625 336.36328125 712.12109375 290.909179688 c 2
 684.848632812 100 l 1
 500 100 l 2
 454.545898438 100 415.151367188 63.63671875 415.151367188 15.1513671875 c 2
 415.151367188 -160.606445312 l 2
848.484375 57.576171875 m 2
 872.727539062 57.576171875 890.909179688 39.3935546875 890.909179688 15.1513671875 c 2
 890.909179688 -160.606445312 l 2
 890.909179688 -184.848632812 872.727539062 -203.030273438 848.484375 -203.030273438 c 2
 503.030273438 -203.030273438 l 2
 478.788085938 -203.030273438 460.606445312 -184.848632812 460.606445312 -160.606445312 c 2
 460.606445312 15.1513671875 l 2
 460.606445312 39.3935546875 478.788085938 57.576171875 503.030273438 57.576171875 c 2
 848.484375 57.576171875 l 2
851.515625 -142.423828125 m 2
 851.515625 3.0302734375 l 2
 851.515625 15.1513671875 842.423828125 24.2421875 830.302734375 24.2421875 c 2
 687.87890625 24.2421875 l 1
 687.87890625 -163.63671875 l 1
 830.302734375 -163.63671875 l 2
 842.423828125 -163.63671875 851.515625 -154.545898438 851.515625 -142.423828125 c 2
EndSplineSet
Validated: 33
EndChar

StartChar: eraser
Encoding: 57384 57384 30
Width: 1000
Flags: H
LayerCount: 2
Fore
SplineSet
972.727539062 206.060546875 m 2
 693.939453125 -72.7275390625 l 1
 975.7578125 -72.7275390625 l 2
 990.909179688 -72.7275390625 1000 -84.8486328125 1000 -96.9697265625 c 2
 1000 -175.7578125 l 2
 1000 -187.87890625 987.87890625 -200 975.7578125 -200 c 2
 281.818359375 -200 l 2
 254.545898438 -200 233.333007812 -190.909179688 215.151367188 -172.727539062 c 2
 27.2724609375 18.181640625 l 2
 -9.0908203125 54.5458984375 -9.0908203125 115.151367188 27.2724609375 151.515625 c 2
 527.272460938 657.576171875 l 2
 563.63671875 693.939453125 624.2421875 693.939453125 660.606445312 657.576171875 c 2
 972.727539062 339.393554688 l 2
 1009.09082031 303.030273438 1009.09082031 242.423828125 972.727539062 206.060546875 c 2
381.818359375 330.302734375 m 1
 136.36328125 81.818359375 l 1
 293.939453125 -75.7578125 l 1
 521.211914062 -75.7578125 l 1
 651.515625 57.576171875 l 1
 381.818359375 330.302734375 l 1
EndSplineSet
Validated: 33
EndChar

StartChar: canvas
Encoding: 57385 57385 31
Width: 1000
Flags: H
LayerCount: 2
Fore
SplineSet
684.848632812 518.181640625 m 2
 748.484375 460.606445312 l 2
 748.484375 457.576171875 748.484375 457.576171875 748.484375 454.545898438 c 0
 748.484375 400 709.090820312 366.666992188 654.545898438 366.666992188 c 0
 587.87890625 366.666992188 560.606445312 421.211914062 560.606445312 481.818359375 c 1
 566.666992188 478.788085938 590.909179688 457.576171875 600 457.576171875 c 0
 606.060546875 457.576171875 609.090820312 457.576171875 612.12109375 463.63671875 c 0
 627.272460938 506.060546875 654.545898438 515.151367188 684.848632812 518.181640625 c 2
896.969726562 748.484375 m 0
 918.181640625 748.484375 936.36328125 733.333007812 930.302734375 712.12109375 c 0
 930.302734375 700 927.272460938 690.909179688 921.211914062 678.788085938 c 0
 839.393554688 521.211914062 812.12109375 487.87890625 766.666992188 487.87890625 c 0
 763.63671875 487.87890625 757.576171875 490.909179688 751.515625 490.909179688 c 2
 706.060546875 530.302734375 l 2
 703.030273438 536.36328125 700 548.484375 700 557.576171875 c 0
 700 596.969726562 715.151367188 600 866.666992188 736.36328125 c 0
 875.7578125 742.423828125 884.848632812 748.484375 896.969726562 748.484375 c 0
836.36328125 409.090820312 m 2
 836.36328125 424.2421875 842.423828125 442.423828125 854.545898438 454.545898438 c 2
 893.939453125 515.151367188 l 2
 900 527.272460938 915.151367188 521.211914062 915.151367188 509.090820312 c 2
 915.151367188 -15.1513671875 l 2
 915.151367188 -63.63671875 875.7578125 -103.030273438 827.272460938 -103.030273438 c 2
 175.7578125 -103.030273438 l 2
 127.272460938 -103.030273438 87.87890625 -63.63671875 87.87890625 -15.1513671875 c 2
 87.87890625 636.36328125 l 2
 87.87890625 684.848632812 127.272460938 724.2421875 175.7578125 724.2421875 c 2
 751.515625 724.2421875 l 2
 763.63671875 724.2421875 769.697265625 709.090820312 760.606445312 703.030273438 c 2
 724.2421875 669.697265625 l 2
 706.060546875 657.576171875 687.87890625 648.484375 666.666992188 648.484375 c 2
 212.12109375 648.484375 l 2
 184.848632812 648.484375 160.606445312 624.2421875 160.606445312 596.969726562 c 2
 160.606445312 209.090820312 l 2
 160.606445312 178.788085938 184.848632812 154.545898438 215.151367188 154.545898438 c 2
 427.272460938 154.545898438 l 2
 442.423828125 154.545898438 457.576171875 160.606445312 466.666992188 169.697265625 c 2
 581.818359375 284.848632812 l 2
 603.030273438 306.060546875 636.36328125 306.060546875 657.576171875 284.848632812 c 2
 772.727539062 166.666992188 l 2
 784.848632812 157.576171875 796.969726562 151.515625 812.12109375 151.515625 c 2
 836.36328125 151.515625 l 1
 836.36328125 409.090820312 l 2
306.060546875 406.060546875 m 0
 306.060546875 449.57421875 341.334960938 484.848632812 384.848632812 484.848632812 c 0
 428.362304688 484.848632812 463.63671875 449.57421875 463.63671875 406.060546875 c 0
 463.63671875 362.546875 428.362304688 327.272460938 384.848632812 327.272460938 c 0
 341.334960938 327.272460938 306.060546875 362.546875 306.060546875 406.060546875 c 0
EndSplineSet
Validated: 33
EndChar

StartChar: eye_drop
Encoding: 57386 57386 32
Width: 1000
Flags: H
LayerCount: 2
Fore
SplineSet
557.576171875 757.576171875 m 0
 645.454101562 445.454101562 839.393554688 366.666992188 842.423828125 148.484375 c 0
 842.423828125 -45.4541015625 690.909179688 -200 503.030273438 -200 c 0
 315.151367188 -200 163.63671875 -42.423828125 163.63671875 148.484375 c 0
 163.63671875 366.666992188 354.545898438 448.484375 445.454101562 757.576171875 c 0
 463.63671875 815.151367188 542.423828125 815.151367188 557.576171875 757.576171875 c 0
500 -75.7578125 m 0
 518.181640625 -75.7578125 530.302734375 -60.6064453125 530.302734375 -45.4541015625 c 0
 530.302734375 -30.302734375 518.181640625 -15.1513671875 500 -15.1513671875 c 0
 415.151367188 -15.1513671875 345.454101562 57.576171875 345.454101562 142.423828125 c 0
 345.454101562 157.576171875 333.333007812 172.727539062 315.151367188 172.727539062 c 0
 300 172.727539062 284.848632812 160.606445312 284.848632812 142.423828125 c 0
 284.848632812 21.2119140625 381.818359375 -75.7578125 500 -75.7578125 c 0
EndSplineSet
Validated: 33
EndChar

StartChar: orientation
Encoding: 57392 57392 33
Width: 1000
Flags: H
LayerCount: 2
Fore
SplineSet
939.393554688 300 m 2
 972.727539062 300 1000 275.7578125 1000 242.423828125 c 2
 1000 -139.393554688 l 2
 1000 -172.727539062 972.727539062 -200 939.393554688 -200 c 2
 312.12109375 -200 l 2
 278.788085938 -200 251.515625 -172.727539062 251.515625 -139.393554688 c 2
 251.515625 -27.2724609375 l 1
 442.423828125 -27.2724609375 l 2
 518.181640625 -27.2724609375 578.788085938 33.3330078125 578.788085938 109.090820312 c 2
 578.788085938 300 l 1
 939.393554688 300 l 2
415.151367188 51.515625 m 2
 87.87890625 51.515625 l 2
 39.3935546875 51.515625 3.0302734375 90.9091796875 3.0302734375 136.36328125 c 2
 3.0302734375 712.12109375 l 2
 3.0302734375 760.606445312 42.423828125 796.969726562 87.87890625 796.969726562 c 2
 418.181640625 796.969726562 l 2
 466.666992188 796.969726562 503.030273438 757.576171875 503.030273438 712.12109375 c 2
 503.030273438 136.36328125 l 2
 503.030273438 87.87890625 463.63671875 51.515625 415.151367188 51.515625 c 2
987.87890625 536.36328125 m 0
 1003.03027344 521.211914062 1003.03027344 496.969726562 984.848632812 478.788085938 c 2
 900 393.939453125 l 2
 890.909179688 384.848632812 881.818359375 381.818359375 872.727539062 381.818359375 c 0
 863.63671875 381.818359375 851.515625 387.87890625 845.454101562 393.939453125 c 2
 760.606445312 478.788085938 l 2
 745.454101562 493.939453125 745.454101562 518.181640625 760.606445312 533.333007812 c 0
 775.7578125 548.484375 800 548.484375 815.151367188 533.333007812 c 2
 833.333007812 515.151367188 l 1
 827.272460938 627.272460938 733.333007812 718.181640625 618.181640625 718.181640625 c 0
 596.969726562 718.181640625 578.788085938 736.36328125 578.788085938 757.576171875 c 0
 578.788085938 778.788085938 596.969726562 796.969726562 618.181640625 796.969726562 c 0
 775.7578125 796.969726562 906.060546875 672.727539062 912.12109375 515.151367188 c 1
 933.333007812 536.36328125 l 2
 948.484375 551.515625 972.727539062 551.515625 987.87890625 536.36328125 c 0
EndSplineSet
Validated: 33
EndChar

StartChar: save
Encoding: 57393 57393 34
Width: 1000
Flags: H
LayerCount: 2
Fore
SplineSet
1000 506.060546875 m 2
 1000 -90.9091796875 l 2
 1000 -151.515625 951.515625 -196.969726562 893.939453125 -196.969726562 c 2
 106.060546875 -196.969726562 l 2
 45.4541015625 -196.969726562 0 -148.484375 0 -90.9091796875 c 2
 0 690.909179688 l 2
 0 751.515625 48.484375 800 106.060546875 800 c 2
 703.030273438 800 l 2
 733.333007812 800 760.606445312 787.87890625 778.788085938 769.697265625 c 2
 969.697265625 581.818359375 l 2
 987.87890625 560.606445312 1000 533.333007812 1000 506.060546875 c 2
706.060546875 639.393554688 m 2
 700 648.484375 l 2
 693.939453125 654.545898438 687.87890625 657.576171875 681.818359375 657.576171875 c 2
 169.697265625 657.576171875 l 2
 154.545898438 657.576171875 142.423828125 645.454101562 142.423828125 630.302734375 c 2
 142.423828125 396.969726562 l 2
 142.423828125 381.818359375 154.545898438 369.697265625 169.697265625 369.697265625 c 2
 687.87890625 369.697265625 l 2
 703.030273438 369.697265625 715.151367188 381.818359375 715.151367188 396.969726562 c 2
 715.151367188 621.211914062 l 2
 715.151367188 630.302734375 712.12109375 636.36328125 706.060546875 639.393554688 c 2
642.423828125 84.8486328125 m 0
 642.423828125 163.63671875 578.788085938 227.272460938 500 227.272460938 c 0
 421.211914062 227.272460938 357.576171875 163.63671875 357.576171875 84.8486328125 c 0
 357.576171875 6.060546875 421.211914062 -57.576171875 500 -57.576171875 c 0
 578.788085938 -57.576171875 642.423828125 6.060546875 642.423828125 84.8486328125 c 0
EndSplineSet
Validated: 1
EndChar

StartChar: views
Encoding: 57395 57395 35
Width: 1000
Flags: H
LayerCount: 2
Fore
SplineSet
951.515625 530.302734375 m 2
 978.788085938 530.302734375 1000 506.060546875 1000 478.788085938 c 2
 1000 118.181640625 l 2
 1000 90.9091796875 978.788085938 69.697265625 951.515625 69.697265625 c 2
 863.63671875 69.697265625 l 1
 863.63671875 530.302734375 l 1
 951.515625 530.302734375 l 2
136.36328125 530.302734375 m 1
 136.36328125 69.697265625 l 1
 48.484375 69.697265625 l 2
 21.2119140625 69.697265625 0 90.9091796875 0 118.181640625 c 2
 0 478.788085938 l 2
 0 506.060546875 21.2119140625 530.302734375 48.484375 530.302734375 c 2
 136.36328125 530.302734375 l 1
730.302734375 593.939453125 m 2
 766.666992188 593.939453125 793.939453125 566.666992188 796.969726562 530.302734375 c 2
 796.969726562 66.6669921875 l 2
 796.969726562 30.302734375 769.697265625 3.0302734375 733.333007812 3.0302734375 c 2
 269.697265625 3.0302734375 l 2
 233.333007812 3.0302734375 206.060546875 30.302734375 206.060546875 66.6669921875 c 2
 206.060546875 530.302734375 l 2
 206.060546875 566.666992188 233.333007812 593.939453125 269.697265625 593.939453125 c 2
 730.302734375 593.939453125 l 2
296.969726562 539.393554688 m 2
 275.7578125 539.393554688 260.606445312 524.2421875 257.576171875 503.030273438 c 2
 257.576171875 227.272460938 l 2
 257.576171875 206.060546875 275.7578125 187.87890625 296.969726562 187.87890625 c 2
 451.515625 187.87890625 l 2
 460.606445312 187.87890625 472.727539062 193.939453125 478.788085938 200 c 2
 560.606445312 281.818359375 l 2
 575.7578125 296.969726562 600 296.969726562 615.151367188 281.818359375 c 2
 696.969726562 200 l 2
 703.030273438 190.909179688 715.151367188 187.87890625 724.2421875 187.87890625 c 2
 742.423828125 187.87890625 l 1
 742.423828125 503.030273438 l 2
 742.423828125 524.2421875 727.272460938 539.393554688 706.060546875 539.393554688 c 2
 296.969726562 539.393554688 l 2
406.060546875 406.060546875 m 0
 406.060546875 436.185546875 430.481445312 460.606445312 460.606445312 460.606445312 c 0
 490.73046875 460.606445312 515.151367188 436.185546875 515.151367188 406.060546875 c 0
 515.151367188 375.935546875 490.73046875 351.515625 460.606445312 351.515625 c 0
 430.481445312 351.515625 406.060546875 375.935546875 406.060546875 406.060546875 c 0
EndSplineSet
Validated: 33
EndChar

StartChar: lock
Encoding: 57396 57396 36
Width: 1000
Flags: H
LayerCount: 2
Fore
SplineSet
806.060546875 306.060546875 m 2
 851.515625 306.060546875 890.909179688 269.697265625 890.909179688 224.2421875 c 2
 890.909179688 -118.181640625 l 2
 890.909179688 -163.63671875 851.515625 -203.030273438 806.060546875 -203.030273438 c 2
 193.939453125 -203.030273438 l 2
 145.454101562 -203.030273438 109.090820312 -163.63671875 109.090820312 -118.181640625 c 2
 109.090820312 221.211914062 l 2
 109.090820312 266.666992188 148.484375 306.060546875 193.939453125 306.060546875 c 2
 236.36328125 306.060546875 l 1
 236.36328125 530.302734375 l 2
 236.36328125 678.788085938 354.545898438 800 500 800 c 0
 645.454101562 800 763.63671875 678.788085938 760.606445312 530.302734375 c 2
 760.606445312 472.727539062 l 2
 760.606445312 433.333007812 730.302734375 403.030273438 690.909179688 403.030273438 c 0
 651.515625 403.030273438 621.211914062 433.333007812 621.211914062 472.727539062 c 2
 621.211914062 530.302734375 l 2
 621.211914062 600 563.63671875 657.576171875 496.969726562 657.576171875 c 0
 430.302734375 657.576171875 372.727539062 600 372.727539062 530.302734375 c 2
 372.727539062 306.060546875 l 1
 624.2421875 306.060546875 l 1
 763.63671875 306.060546875 l 1
 806.060546875 306.060546875 l 2
EndSplineSet
Validated: 33
EndChar

StartChar: unlock
Encoding: 57397 57397 37
Width: 1000
Flags: H
LayerCount: 2
Fore
SplineSet
806.060546875 306.060546875 m 2
 851.515625 306.060546875 890.909179688 269.697265625 890.909179688 221.211914062 c 2
 890.909179688 -118.181640625 l 2
 890.909179688 -163.63671875 851.515625 -203.030273438 806.060546875 -203.030273438 c 2
 193.939453125 -203.030273438 l 2
 145.454101562 -203.030273438 109.090820312 -163.63671875 109.090820312 -118.181640625 c 2
 109.090820312 221.211914062 l 2
 109.090820312 266.666992188 148.484375 306.060546875 193.939453125 306.060546875 c 2
 236.36328125 306.060546875 l 1
 236.36328125 415.151367188 l 2
 236.36328125 560.606445312 354.545898438 681.818359375 500 681.818359375 c 0
 645.454101562 681.818359375 763.63671875 563.63671875 763.63671875 415.151367188 c 2
 763.63671875 415.151367188 763.63671875 333.333007812 763.63671875 306.060546875 c 1
 806.060546875 306.060546875 l 2
375.7578125 415.151367188 m 1
 372.727539062 415.151367188 l 1
 372.727539062 306.060546875 l 1
 624.2421875 306.060546875 l 1
 624.2421875 415.151367188 l 2
 624.2421875 484.848632812 566.666992188 542.423828125 500 542.423828125 c 0
 433.333007812 542.423828125 375.7578125 484.848632812 375.7578125 415.151367188 c 1
EndSplineSet
Validated: 1
EndChar

StartChar: clipboard
Encoding: 57399 57399 38
Width: 1000
Flags: H
LayerCount: 2
Fore
SplineSet
869.697265625 581.818359375 m 1
 869.697265625 -106.060546875 l 2
 869.697265625 -157.576171875 827.272460938 -200 775.7578125 -200 c 2
 221.211914062 -200 l 2
 169.697265625 -200 127.272460938 -157.576171875 127.272460938 -106.060546875 c 2
 127.272460938 581.818359375 l 2
 127.272460938 633.333007812 169.697265625 675.7578125 221.211914062 675.7578125 c 2
 372.727539062 675.7578125 l 1
 372.727539062 745.454101562 427.272460938 800 496.969726562 800 c 0
 566.666992188 800 621.211914062 745.454101562 621.211914062 675.7578125 c 1
 775.7578125 675.7578125 l 2
 827.272460938 675.7578125 869.697265625 633.333007812 869.697265625 581.818359375 c 1
684.848632812 496.969726562 m 1
 687.87890625 496.969726562 l 1
 687.87890625 536.36328125 l 2
 687.87890625 542.423828125 681.818359375 548.484375 675.7578125 548.484375 c 2
 327.272460938 548.484375 l 2
 321.211914062 548.484375 315.151367188 542.423828125 315.151367188 536.36328125 c 2
 315.151367188 496.969726562 l 2
 315.151367188 490.909179688 321.211914062 484.848632812 327.272460938 484.848632812 c 2
 672.727539062 484.848632812 l 2
 678.788085938 484.848632812 684.848632812 490.909179688 684.848632812 496.969726562 c 1
500 721.211914062 m 0
 475.7578125 721.211914062 454.545898438 703.030273438 454.545898438 675.7578125 c 0
 454.545898438 648.484375 475.7578125 630.302734375 500 630.302734375 c 0
 524.2421875 630.302734375 545.454101562 651.515625 545.454101562 675.7578125 c 0
 545.454101562 700 524.2421875 721.211914062 500 721.211914062 c 0
EndSplineSet
Validated: 1
EndChar

StartChar: clipboard_success
Encoding: 57400 57400 39
Width: 1000
Flags: H
LayerCount: 2
Fore
SplineSet
778.788085938 675.7578125 m 2
 827.272460938 675.7578125 869.697265625 633.333007812 869.697265625 581.818359375 c 2
 869.697265625 -106.060546875 l 2
 869.697265625 -157.576171875 827.272460938 -200 775.7578125 -200 c 2
 221.211914062 -200 l 2
 169.697265625 -200 127.272460938 -157.576171875 127.272460938 -106.060546875 c 2
 127.272460938 581.818359375 l 2
 127.272460938 633.333007812 169.697265625 675.7578125 221.211914062 675.7578125 c 2
 375.7578125 675.7578125 l 1
 375.7578125 745.454101562 430.302734375 800 500 800 c 0
 569.697265625 800 624.2421875 745.454101562 624.2421875 675.7578125 c 1
 778.788085938 675.7578125 l 2
733.333007812 269.697265625 m 2
 742.423828125 278.788085938 742.423828125 290.909179688 730.302734375 306.060546875 c 2
 675.7578125 360.606445312 l 2
 666.666992188 369.697265625 651.515625 369.697265625 642.423828125 360.606445312 c 2
 439.393554688 154.545898438 l 1
 351.515625 245.454101562 l 2
 342.423828125 254.545898438 327.272460938 254.545898438 318.181640625 245.454101562 c 2
 263.63671875 190.909179688 l 2
 254.545898438 181.818359375 254.545898438 166.666992188 263.63671875 157.576171875 c 2
 424.2421875 -6.060546875 l 2
 433.333007812 -15.1513671875 448.484375 -15.1513671875 457.576171875 -6.060546875 c 2
 733.333007812 269.697265625 l 2
500 721.211914062 m 0
 475.7578125 721.211914062 454.545898438 703.030273438 454.545898438 675.7578125 c 0
 454.545898438 648.484375 475.7578125 627.272460938 500 630.302734375 c 0
 524.2421875 630.302734375 545.454101562 651.515625 545.454101562 675.7578125 c 0
 545.454101562 700 524.2421875 721.211914062 500 721.211914062 c 0
EndSplineSet
Validated: 33
EndChar

StartChar: clipboard_fail
Encoding: 57401 57401 40
Width: 1000
Flags: H
LayerCount: 2
Fore
SplineSet
778.788085938 675.7578125 m 2
 827.272460938 675.7578125 869.697265625 633.333007812 869.697265625 581.818359375 c 2
 869.697265625 -106.060546875 l 2
 869.697265625 -157.576171875 827.272460938 -200 775.7578125 -200 c 2
 221.211914062 -200 l 2
 169.697265625 -200 127.272460938 -157.576171875 127.272460938 -106.060546875 c 2
 127.272460938 581.818359375 l 2
 127.272460938 633.333007812 169.697265625 675.7578125 221.211914062 675.7578125 c 2
 375.7578125 675.7578125 l 1
 375.7578125 745.454101562 430.302734375 800 500 800 c 0
 569.697265625 800 624.2421875 745.454101562 624.2421875 675.7578125 c 1
 778.788085938 675.7578125 l 2
500 721.211914062 m 0
 475.7578125 721.211914062 454.545898438 703.030273438 454.545898438 675.7578125 c 0
 454.545898438 648.484375 475.7578125 630.302734375 500 630.302734375 c 0
 524.2421875 630.302734375 545.454101562 651.515625 545.454101562 675.7578125 c 0
 545.454101562 700 524.2421875 721.211914062 500 721.211914062 c 0
681.818359375 66.6669921875 m 2
 572.727539062 175.7578125 l 1
 681.818359375 284.848632812 l 2
 693.939453125 300 693.939453125 321.211914062 681.818359375 333.333007812 c 2
 657.576171875 357.576171875 l 2
 645.454101562 369.697265625 621.211914062 369.697265625 609.090820312 357.576171875 c 2
 500 248.484375 l 1
 390.909179688 357.576171875 l 2
 378.788085938 369.697265625 354.545898438 369.697265625 342.423828125 357.576171875 c 2
 318.181640625 333.333007812 l 2
 306.060546875 318.181640625 306.060546875 296.969726562 318.181640625 284.848632812 c 2
 427.272460938 175.7578125 l 1
 318.181640625 66.6669921875 l 2
 306.060546875 51.515625 306.060546875 30.302734375 318.181640625 18.181640625 c 2
 342.423828125 -6.060546875 l 2
 354.545898438 -18.181640625 378.788085938 -18.181640625 390.909179688 -6.060546875 c 2
 500 103.030273438 l 1
 609.090820312 -6.060546875 l 2
 621.211914062 -18.181640625 645.454101562 -18.181640625 657.576171875 -6.060546875 c 2
 681.818359375 18.181640625 l 2
 693.939453125 33.3330078125 693.939453125 54.5458984375 681.818359375 66.6669921875 c 2
EndSplineSet
Validated: 33
EndChar

StartChar: clipboard_paste
Encoding: 57402 57402 41
Width: 1000
Flags: H
LayerCount: 2
Fore
SplineSet
312.12109375 -12.12109375 m 1
 109.090820312 -12.12109375 l 2
 81.818359375 -12.12109375 63.63671875 9.0908203125 63.63671875 33.3330078125 c 2
 63.63671875 690.909179688 l 2
 63.63671875 718.181640625 84.8486328125 736.36328125 109.090820312 736.36328125 c 2
 266.666992188 736.36328125 l 2
 287.87890625 772.727539062 327.272460938 800 375.7578125 800 c 0
 424.2421875 800 463.63671875 775.7578125 484.848632812 736.36328125 c 2
 642.423828125 736.36328125 l 2
 669.697265625 736.36328125 687.87890625 715.151367188 687.87890625 690.909179688 c 2
 687.87890625 551.515625 l 1
 421.211914062 551.515625 l 2
 360.606445312 551.515625 312.12109375 503.030273438 312.12109375 442.423828125 c 2
 312.12109375 -12.12109375 l 1
327.272460938 675.7578125 m 0
 327.272460938 648.484375 348.484375 630.302734375 372.727539062 630.302734375 c 0
 396.969726562 630.302734375 418.181640625 651.515625 418.181640625 675.7578125 c 0
 418.181640625 700 396.969726562 721.211914062 372.727539062 721.211914062 c 0
 348.484375 721.211914062 327.272460938 700 327.272460938 675.7578125 c 0
936.36328125 236.36328125 m 1
 936.36328125 -154.545898438 l 2
 936.36328125 -181.818359375 915.151367188 -200 890.909179688 -200 c 2
 421.211914062 -200 l 2
 393.939453125 -200 375.7578125 -178.788085938 375.7578125 -154.545898438 c 2
 375.7578125 439.393554688 l 2
 375.7578125 466.666992188 396.969726562 484.848632812 421.211914062 484.848632812 c 2
 687.87890625 484.848632812 l 1
 687.87890625 284.848632812 l 2
 687.87890625 257.576171875 709.090820312 239.393554688 733.333007812 239.393554688 c 2
 936.36328125 239.393554688 l 1
 936.36328125 236.36328125 l 1
936.36328125 300 m 1
 748.484375 300 l 1
 748.484375 487.87890625 l 1
 760.606445312 487.87890625 l 2
 772.727539062 487.87890625 784.848632812 481.818359375 793.939453125 472.727539062 c 2
 921.211914062 345.454101562 l 2
 930.302734375 336.36328125 936.36328125 324.2421875 936.36328125 312.12109375 c 2
 936.36328125 300 l 1
EndSplineSet
Validated: 1
EndChar

StartChar: move
Encoding: 57408 57408 42
Width: 1000
Flags: H
LayerCount: 2
Fore
SplineSet
684.848632812 -39.3935546875 m 2
 542.423828125 -184.848632812 l 2
 518.181640625 -209.090820312 478.788085938 -209.090820312 454.545898438 -184.848632812 c 2
 312.12109375 -39.3935546875 l 2
 293.939453125 -21.2119140625 293.939453125 9.0908203125 312.12109375 27.2724609375 c 2
 333.333007812 48.484375 l 2
 351.515625 66.6669921875 381.818359375 66.6669921875 400 48.484375 c 2
 445.454101562 -3.0302734375 l 1
 445.454101562 242.423828125 l 1
 203.030273438 242.423828125 l 1
 254.545898438 196.969726562 l 2
 272.727539062 178.788085938 272.727539062 148.484375 254.545898438 130.302734375 c 2
 233.333007812 109.090820312 l 2
 215.151367188 90.9091796875 184.848632812 90.9091796875 166.666992188 109.090820312 c 2
 24.2421875 254.545898438 l 2
 0 278.788085938 0 318.181640625 24.2421875 342.423828125 c 2
 166.666992188 487.87890625 l 2
 184.848632812 506.060546875 215.151367188 506.060546875 233.333007812 487.87890625 c 2
 254.545898438 466.666992188 l 2
 272.727539062 448.484375 272.727539062 418.181640625 254.545898438 400 c 2
 203.030273438 354.545898438 l 1
 445.454101562 354.545898438 l 1
 445.454101562 600 l 1
 400 548.484375 l 2
 381.818359375 530.302734375 351.515625 530.302734375 333.333007812 548.484375 c 2
 315.151367188 569.697265625 l 2
 296.969726562 587.87890625 296.969726562 618.181640625 315.151367188 636.36328125 c 2
 457.576171875 781.818359375 l 2
 481.818359375 806.060546875 521.211914062 806.060546875 545.454101562 781.818359375 c 2
 687.87890625 636.36328125 l 2
 706.060546875 618.181640625 706.060546875 587.87890625 687.87890625 569.697265625 c 2
 666.666992188 548.484375 l 2
 648.484375 530.302734375 618.181640625 530.302734375 600 548.484375 c 2
 554.545898438 600 l 1
 554.545898438 354.545898438 l 1
 796.969726562 354.545898438 l 1
 745.454101562 400 l 2
 727.272460938 418.181640625 727.272460938 448.484375 745.454101562 466.666992188 c 2
 766.666992188 487.87890625 l 2
 784.848632812 506.060546875 815.151367188 506.060546875 833.333007812 487.87890625 c 2
 975.7578125 342.423828125 l 2
 1000 318.181640625 1000 278.788085938 975.7578125 254.545898438 c 2
 833.333007812 109.090820312 l 2
 815.151367188 90.9091796875 784.848632812 90.9091796875 766.666992188 109.090820312 c 2
 745.454101562 130.302734375 l 2
 727.272460938 148.484375 727.272460938 178.788085938 745.454101562 196.969726562 c 2
 796.969726562 242.423828125 l 1
 554.545898438 242.423828125 l 1
 554.545898438 -3.0302734375 l 1
 600 48.484375 l 2
 618.181640625 66.6669921875 648.484375 66.6669921875 666.666992188 48.484375 c 2
 684.848632812 27.2724609375 l 2
 703.030273438 9.0908203125 703.030273438 -21.2119140625 684.848632812 -39.3935546875 c 2
EndSplineSet
Validated: 33
EndChar

StartChar: arrow_up
Encoding: 57409 57409 43
Width: 1000
Flags: H
LayerCount: 2
Fore
SplineSet
518.181640625 -200 m 2
 481.818359375 -200 l 2
 463.63671875 -200 445.454101562 -184.848632812 445.454101562 -163.63671875 c 2
 445.454101562 603.030273438 l 1
 400 551.515625 l 2
 381.818359375 533.333007812 351.515625 533.333007812 333.333007812 551.515625 c 2
 312.12109375 572.727539062 l 2
 293.939453125 590.909179688 293.939453125 621.211914062 312.12109375 639.393554688 c 2
 457.576171875 781.818359375 l 2
 481.818359375 806.060546875 521.211914062 806.060546875 545.454101562 781.818359375 c 2
 687.87890625 639.393554688 l 2
 706.060546875 621.211914062 706.060546875 590.909179688 687.87890625 572.727539062 c 2
 666.666992188 551.515625 l 2
 648.484375 533.333007812 618.181640625 533.333007812 600 551.515625 c 2
 554.545898438 603.030273438 l 1
 554.545898438 -163.63671875 l 2
 554.545898438 -181.818359375 539.393554688 -200 518.181640625 -200 c 2
EndSplineSet
Validated: 33
EndChar

StartChar: arrow_right
Encoding: 57410 57410 44
Width: 1000
Flags: H
LayerCount: 2
Fore
SplineSet
0 281.818359375 m 2
 0 315.151367188 l 2
 0 336.36328125 18.181640625 354.545898438 36.36328125 354.545898438 c 2
 803.030273438 354.545898438 l 1
 751.515625 400 l 2
 733.333007812 418.181640625 733.333007812 448.484375 751.515625 466.666992188 c 2
 772.727539062 490.909179688 l 2
 790.909179688 509.090820312 821.211914062 509.090820312 839.393554688 490.909179688 c 2
 981.818359375 345.454101562 l 2
 1006.06054688 321.211914062 1006.06054688 281.818359375 981.818359375 257.576171875 c 2
 839.393554688 112.12109375 l 2
 821.211914062 93.939453125 790.909179688 93.939453125 772.727539062 112.12109375 c 2
 751.515625 133.333007812 l 2
 733.333007812 151.515625 733.333007812 181.818359375 751.515625 200 c 2
 803.030273438 245.454101562 l 1
 36.36328125 245.454101562 l 2
 18.181640625 245.454101562 0 260.606445312 0 281.818359375 c 2
EndSplineSet
Validated: 33
EndChar

StartChar: arrow_down
Encoding: 57411 57411 45
Width: 1000
Flags: H
LayerCount: 2
Fore
SplineSet
481.818359375 800 m 1
 481.818359375 796.969726562 l 1
 518.181640625 796.969726562 l 2
 536.36328125 796.969726562 554.545898438 781.818359375 554.545898438 760.606445312 c 2
 554.545898438 -6.060546875 l 1
 600 45.4541015625 l 2
 618.181640625 63.63671875 648.484375 63.63671875 666.666992188 45.4541015625 c 2
 690.909179688 27.2724609375 l 2
 709.090820312 9.0908203125 709.090820312 -21.2119140625 690.909179688 -39.3935546875 c 2
 545.454101562 -181.818359375 l 2
 521.211914062 -206.060546875 481.818359375 -206.060546875 457.576171875 -181.818359375 c 2
 312.12109375 -39.3935546875 l 2
 293.939453125 -21.2119140625 293.939453125 9.0908203125 312.12109375 27.2724609375 c 2
 333.333007812 48.484375 l 2
 351.515625 66.6669921875 381.818359375 66.6669921875 400 48.484375 c 2
 445.454101562 -3.0302734375 l 1
 445.454101562 763.63671875 l 2
 445.454101562 781.818359375 460.606445312 800 481.818359375 800 c 1
EndSplineSet
Validated: 33
EndChar

StartChar: arrow_left
Encoding: 57412 57412 46
Width: 1000
Flags: H
LayerCount: 2
Fore
SplineSet
1000 315.151367188 m 2
 1000 275.7578125 l 2
 1000 257.576171875 984.848632812 239.393554688 963.63671875 239.393554688 c 2
 196.969726562 239.393554688 l 1
 248.484375 193.939453125 l 2
 266.666992188 175.7578125 266.666992188 145.454101562 248.484375 127.272460938 c 2
 227.272460938 106.060546875 l 2
 209.090820312 87.87890625 178.788085938 87.87890625 160.606445312 106.060546875 c 2
 18.181640625 251.515625 l 2
 -6.060546875 275.7578125 -6.060546875 315.151367188 18.181640625 339.393554688 c 2
 160.606445312 484.848632812 l 2
 178.788085938 503.030273438 209.090820312 503.030273438 227.272460938 484.848632812 c 2
 248.484375 463.63671875 l 2
 266.666992188 445.454101562 266.666992188 415.151367188 248.484375 396.969726562 c 2
 196.969726562 351.515625 l 1
 963.63671875 351.515625 l 2
 981.818359375 351.515625 1000 336.36328125 1000 315.151367188 c 2
EndSplineSet
Validated: 33
EndChar

StartChar: left_double
Encoding: 57413 57413 47
Width: 1000
Flags: H
LayerCount: 2
Fore
SplineSet
18.181640625 254.545898438 m 2
 -6.060546875 278.788085938 -6.060546875 318.181640625 18.181640625 342.423828125 c 2
 360.606445312 684.848632812 l 2
 384.848632812 709.090820312 421.211914062 709.090820312 445.454101562 684.848632812 c 2
 503.030273438 627.272460938 l 2
 527.272460938 606.060546875 527.272460938 566.666992188 503.030273438 542.423828125 c 2
 260.606445312 296.969726562 l 1
 503.030273438 51.515625 l 2
 527.272460938 30.302734375 527.272460938 -9.0908203125 503.030273438 -33.3330078125 c 2
 445.454101562 -90.9091796875 l 2
 421.211914062 -115.151367188 384.848632812 -115.151367188 360.606445312 -90.9091796875 c 2
 18.181640625 254.545898438 l 2
500 342.423828125 m 2
 842.423828125 684.848632812 l 2
 866.666992188 709.090820312 903.030273438 709.090820312 927.272460938 684.848632812 c 2
 984.848632812 627.272460938 l 2
 1009.09082031 606.060546875 1009.09082031 566.666992188 984.848632812 542.423828125 c 2
 742.423828125 296.969726562 l 1
 984.848632812 51.515625 l 2
 1009.09082031 30.302734375 1009.09082031 -9.0908203125 984.848632812 -33.3330078125 c 2
 927.272460938 -90.9091796875 l 2
 903.030273438 -115.151367188 866.666992188 -115.151367188 842.423828125 -90.9091796875 c 2
 500 254.545898438 l 2
 475.7578125 278.788085938 475.7578125 318.181640625 500 342.423828125 c 2
EndSplineSet
Validated: 33
EndChar

StartChar: right_double
Encoding: 57414 57414 48
Width: 1000
Flags: H
LayerCount: 2
Fore
SplineSet
981.818359375 254.545898438 m 2
 642.423828125 -90.9091796875 l 2
 618.181640625 -115.151367188 581.818359375 -115.151367188 557.576171875 -90.9091796875 c 2
 500 -33.3330078125 l 2
 475.7578125 -9.0908203125 475.7578125 30.302734375 500 51.515625 c 2
 742.423828125 296.969726562 l 1
 500 542.423828125 l 2
 475.7578125 566.666992188 475.7578125 606.060546875 500 627.272460938 c 2
 557.576171875 684.848632812 l 2
 581.818359375 709.090820312 618.181640625 709.090820312 642.423828125 684.848632812 c 2
 984.848632812 339.393554688 l 2
 1006.06054688 318.181640625 1006.06054688 278.788085938 981.818359375 254.545898438 c 2
500 342.423828125 m 2
 524.2421875 318.181640625 524.2421875 278.788085938 500 254.545898438 c 2
 157.576171875 -90.9091796875 l 2
 133.333007812 -115.151367188 96.9697265625 -115.151367188 72.7275390625 -90.9091796875 c 2
 15.1513671875 -33.3330078125 l 2
 -9.0908203125 -9.0908203125 -9.0908203125 30.302734375 15.1513671875 51.515625 c 2
 257.576171875 296.969726562 l 1
 15.1513671875 542.423828125 l 2
 -9.0908203125 566.666992188 -9.0908203125 606.060546875 15.1513671875 627.272460938 c 2
 72.7275390625 684.848632812 l 2
 96.9697265625 709.090820312 133.333007812 709.090820312 157.576171875 684.848632812 c 2
 500 342.423828125 l 2
EndSplineSet
Validated: 33
EndChar

StartChar: angle_left
Encoding: 57415 57415 49
Width: 1000
Flags: H
LayerCount: 2
Fore
SplineSet
257.576171875 342.423828125 m 2
 600 693.939453125 l 2
 624.2421875 718.181640625 660.606445312 718.181640625 684.848632812 693.939453125 c 2
 742.423828125 636.36328125 l 2
 766.666992188 612.12109375 766.666992188 572.727539062 742.423828125 548.484375 c 2
 500 300 l 1
 742.423828125 51.515625 l 2
 766.666992188 27.2724609375 766.666992188 -12.12109375 742.423828125 -36.36328125 c 2
 684.848632812 -93.939453125 l 2
 660.606445312 -118.181640625 624.2421875 -118.181640625 600 -93.939453125 c 2
 257.576171875 254.545898438 l 2
 233.333007812 278.788085938 233.333007812 318.181640625 257.576171875 342.423828125 c 2
EndSplineSet
Validated: 33
EndChar

StartChar: angle_right
Encoding: 57416 57416 50
Width: 1000
Flags: H
LayerCount: 2
Fore
SplineSet
742.423828125 342.423828125 m 2
 766.666992188 318.181640625 766.666992188 278.788085938 742.423828125 254.545898438 c 2
 400 -93.939453125 l 2
 375.7578125 -118.181640625 339.393554688 -118.181640625 315.151367188 -93.939453125 c 2
 257.576171875 -36.36328125 l 2
 233.333007812 -12.12109375 233.333007812 27.2724609375 257.576171875 51.515625 c 2
 500 300 l 1
 257.576171875 548.484375 l 2
 233.333007812 572.727539062 233.333007812 612.12109375 257.576171875 636.36328125 c 2
 315.151367188 693.939453125 l 2
 339.393554688 718.181640625 375.7578125 718.181640625 400 693.939453125 c 2
 742.423828125 342.423828125 l 2
EndSplineSet
Validated: 33
EndChar

StartChar: angle_up
Encoding: 57417 57417 51
Width: 1000
Flags: H
LayerCount: 2
Fore
SplineSet
457.576171875 542.423828125 m 2
 481.818359375 566.666992188 521.211914062 566.666992188 545.454101562 542.423828125 c 2
 893.939453125 200 l 2
 918.181640625 175.7578125 918.181640625 139.393554688 893.939453125 115.151367188 c 2
 836.36328125 57.576171875 l 2
 812.12109375 33.3330078125 772.727539062 33.3330078125 748.484375 57.576171875 c 2
 500 300 l 1
 251.515625 57.576171875 l 2
 227.272460938 33.3330078125 187.87890625 33.3330078125 163.63671875 57.576171875 c 2
 106.060546875 115.151367188 l 2
 81.818359375 139.393554688 81.818359375 175.7578125 106.060546875 200 c 2
 457.576171875 542.423828125 l 2
EndSplineSet
Validated: 33
EndChar

StartChar: angle_down
Encoding: 57418 57418 52
Width: 1000
Flags: H
LayerCount: 2
Fore
SplineSet
542.423828125 54.5458984375 m 2
 518.181640625 30.302734375 478.788085938 30.302734375 454.545898438 54.5458984375 c 2
 109.090820312 400 l 2
 84.8486328125 424.2421875 84.8486328125 460.606445312 109.090820312 484.848632812 c 2
 166.666992188 542.423828125 l 2
 190.909179688 566.666992188 230.302734375 566.666992188 254.545898438 542.423828125 c 2
 503.030273438 300 l 1
 751.515625 542.423828125 l 2
 775.7578125 566.666992188 815.151367188 566.666992188 839.393554688 542.423828125 c 2
 896.969726562 484.848632812 l 2
 921.211914062 460.606445312 921.211914062 424.2421875 896.969726562 400 c 2
 542.423828125 54.5458984375 l 2
EndSplineSet
Validated: 33
EndChar

StartChar: file
Encoding: 57424 57424 53
Width: 1000
Flags: H
LayerCount: 2
Fore
SplineSet
693.939453125 157.576171875 m 2
 666.666992188 157.576171875 642.423828125 133.333007812 642.423828125 103.030273438 c 2
 642.423828125 -200 l 1
 60.6064453125 -200 l 2
 30.302734375 -200 6.060546875 -175.7578125 6.060546875 -148.484375 c 2
 6.060546875 745.454101562 l 2
 6.060546875 775.7578125 30.302734375 800 60.6064453125 800 c 2
 942.423828125 800 l 2
 969.697265625 800 993.939453125 775.7578125 993.939453125 745.454101562 c 2
 993.939453125 157.576171875 l 1
 693.939453125 157.576171875 l 2
978.788085938 33.3330078125 m 2
 763.63671875 -184.848632812 l 2
 754.545898438 -193.939453125 742.423828125 -200 727.272460938 -200 c 2
 712.12109375 -200 l 1
 712.12109375 81.818359375 l 1
 993.939453125 81.818359375 l 1
 993.939453125 69.697265625 l 2
 993.939453125 57.576171875 987.87890625 42.423828125 978.788085938 33.3330078125 c 2
EndSplineSet
Validated: 1
EndChar

StartChar: stack
Encoding: 57425 57425 54
Width: 1000
Flags: H
LayerCount: 2
Fore
SplineSet
30.302734375 509.090820312 m 2
 0 524.2421875 0 572.727539062 30.302734375 587.87890625 c 2
 478.788085938 793.939453125 l 2
 484.848632812 796.969726562 493.939453125 800 500 800 c 0
 506.060546875 800 515.151367188 796.969726562 521.211914062 793.939453125 c 2
 969.697265625 587.87890625 l 2
 1000 572.727539062 1000 524.2421875 969.697265625 509.090820312 c 2
 521.211914062 303.030273438 l 2
 506.060546875 296.969726562 490.909179688 296.969726562 478.788085938 303.030273438 c 2
 30.302734375 509.090820312 l 2
969.697265625 336.36328125 m 2
 1000 324.2421875 1000 275.7578125 969.697265625 260.606445312 c 2
 521.211914062 54.5458984375 l 2
 506.060546875 48.484375 490.909179688 48.484375 478.788085938 54.5458984375 c 2
 30.302734375 260.606445312 l 2
 0 275.7578125 0 324.2421875 30.302734375 336.36328125 c 2
 142.423828125 387.87890625 l 1
 454.545898438 245.454101562 l 2
 469.697265625 239.393554688 484.848632812 236.36328125 500 236.36328125 c 0
 515.151367188 236.36328125 530.302734375 239.393554688 545.454101562 245.454101562 c 2
 857.576171875 387.87890625 l 1
 969.697265625 336.36328125 l 2
969.697265625 87.87890625 m 2
 1000 72.7275390625 1000 24.2421875 969.697265625 9.0908203125 c 2
 521.211914062 -196.969726562 l 2
 506.060546875 -203.030273438 490.909179688 -203.030273438 478.788085938 -196.969726562 c 2
 30.302734375 9.0908203125 l 2
 0 24.2421875 0 72.7275390625 30.302734375 87.87890625 c 2
 142.423828125 139.393554688 l 1
 454.545898438 -3.0302734375 l 2
 469.697265625 -9.0908203125 484.848632812 -12.12109375 500 -12.12109375 c 0
 515.151367188 -12.12109375 530.302734375 -9.0908203125 545.454101562 -3.0302734375 c 2
 857.576171875 139.393554688 l 1
 969.697265625 87.87890625 l 2
EndSplineSet
Validated: 33
EndChar

StartChar: history
Encoding: 57428 57428 55
Width: 1000
Flags: H
LayerCount: 2
Fore
SplineSet
500 -200 m 0
 381.818359375 -200 272.727539062 -157.576171875 184.848632812 -87.87890625 c 0
 163.63671875 -72.7275390625 163.63671875 -39.3935546875 181.818359375 -18.181640625 c 2
 203.030273438 3.0302734375 l 2
 221.211914062 21.2119140625 248.484375 21.2119140625 266.666992188 6.060546875 c 0
 330.302734375 -45.4541015625 409.090820312 -72.7275390625 496.969726562 -72.7275390625 c 0
 703.030273438 -72.7275390625 866.666992188 93.939453125 866.666992188 296.969726562 c 0
 866.666992188 503.030273438 700 666.666992188 496.969726562 666.666992188 c 0
 400 666.666992188 309.090820312 627.272460938 242.423828125 566.666992188 c 1
 345.454101562 463.63671875 l 2
 366.666992188 442.423828125 351.515625 409.090820312 321.211914062 409.090820312 c 2
 33.3330078125 409.090820312 l 2
 15.1513671875 409.090820312 0 424.2421875 0 442.423828125 c 2
 0 736.36328125 l 2
 0 763.63671875 33.3330078125 778.788085938 54.5458984375 760.606445312 c 2
 154.545898438 660.606445312 l 1
 245.454101562 745.454101562 366.666992188 800 500 800 c 0
 775.7578125 800 1000 575.7578125 1000 300 c 0
 1000 24.2421875 775.7578125 -200 500 -200 c 0
566.666992188 133.333007812 m 2
 433.333007812 236.36328125 l 1
 433.333007812 509.090820312 l 2
 436.36328125 536.36328125 457.576171875 557.576171875 484.848632812 557.576171875 c 2
 515.151367188 557.576171875 l 2
 542.423828125 557.576171875 563.63671875 536.36328125 563.63671875 509.090820312 c 2
 563.63671875 300 l 1
 645.454101562 236.36328125 l 2
 666.666992188 221.211914062 669.697265625 190.909179688 654.545898438 169.697265625 c 2
 636.36328125 142.423828125 l 2
 618.181640625 121.211914062 587.87890625 115.151367188 566.666992188 133.333007812 c 2
EndSplineSet
Validated: 33
EndChar

StartChar: undo
Encoding: 57429 57429 56
Width: 1000
Flags: H
LayerCount: 2
Fore
SplineSet
500 -200 m 0
 381.818359375 -200 272.727539062 -157.576171875 184.848632812 -87.87890625 c 0
 163.63671875 -72.7275390625 163.63671875 -39.3935546875 181.818359375 -18.181640625 c 2
 203.030273438 3.0302734375 l 2
 221.211914062 21.2119140625 248.484375 21.2119140625 266.666992188 6.060546875 c 0
 330.302734375 -45.4541015625 409.090820312 -72.7275390625 496.969726562 -72.7275390625 c 0
 703.030273438 -72.7275390625 866.666992188 93.939453125 866.666992188 296.969726562 c 0
 866.666992188 503.030273438 700 666.666992188 496.969726562 666.666992188 c 0
 400 666.666992188 309.090820312 627.272460938 242.423828125 566.666992188 c 1
 345.454101562 463.63671875 l 2
 366.666992188 442.423828125 351.515625 409.090820312 321.211914062 409.090820312 c 2
 33.3330078125 409.090820312 l 2
 15.1513671875 409.090820312 0 424.2421875 0 442.423828125 c 2
 0 736.36328125 l 2
 0 763.63671875 33.3330078125 778.788085938 54.5458984375 760.606445312 c 2
 154.545898438 660.606445312 l 1
 245.454101562 745.454101562 366.666992188 800 500 800 c 0
 775.7578125 800 1000 575.7578125 1000 300 c 0
 1000 24.2421875 775.7578125 -200 500 -200 c 0
EndSplineSet
Validated: 33
EndChar

StartChar: redo
Encoding: 57430 57430 57
Width: 1000
Flags: H
LayerCount: 2
Fore
SplineSet
0 300 m 0
 0 575.7578125 224.2421875 800 500 800 c 0
 633.333007812 800 754.545898438 748.484375 845.454101562 660.606445312 c 1
 945.454101562 760.606445312 l 2
 966.666992188 781.818359375 1000 766.666992188 1000 736.36328125 c 2
 1000 442.423828125 l 2
 1000 424.2421875 984.848632812 409.090820312 966.666992188 409.090820312 c 2
 672.727539062 409.090820312 l 2
 645.454101562 409.090820312 630.302734375 442.423828125 648.484375 463.63671875 c 2
 751.515625 566.666992188 l 1
 684.848632812 630.302734375 596.969726562 666.666992188 496.969726562 666.666992188 c 0
 293.939453125 669.697265625 130.302734375 503.030273438 130.302734375 300 c 0
 130.302734375 93.939453125 296.969726562 -69.697265625 500 -69.697265625 c 0
 587.87890625 -69.697265625 666.666992188 -39.3935546875 730.302734375 9.0908203125 c 0
 748.484375 24.2421875 775.7578125 21.2119140625 793.939453125 6.060546875 c 2
 818.181640625 -18.181640625 l 2
 839.393554688 -39.3935546875 836.36328125 -72.7275390625 815.151367188 -90.9091796875 c 0
 727.272460938 -160.606445312 618.181640625 -200 500 -200 c 0
 224.2421875 -200 0 24.2421875 0 300 c 0
EndSplineSet
Validated: 33
EndChar

StartChar: eye
Encoding: 57440 57440 58
Width: 1000
Flags: H
LayerCount: 2
Fore
SplineSet
945 321 m 0
 948 315 952 306 955 297 c 0
 955 288 951.515625 278.788085938 948.484375 272.727539062 c 0
 863.63671875 103.030273438 696.969726562 -9.0908203125 503.030273438 -9.0908203125 c 0
 309.090820312 -9.0908203125 142.423828125 106.060546875 57.576171875 272.727539062 c 0
 54.5458984375 281.818359375 51.515625 287.87890625 51.515625 296.969726562 c 0
 51.515625 306.060546875 54.5458984375 315.151367188 57.576171875 321.211914062 c 0
 142.423828125 490.909179688 306.060546875 603.030273438 500 603.030273438 c 0
 693.939453125 603.030273438 861 488 945 321 c 0
500 69.697265625 m 0
 624.2421875 69.697265625 727.272460938 172.727539062 724.2421875 300 c 1
 724.2421875 424.2421875 624.2421875 527.272460938 500 527.272460938 c 0
 375.7578125 527.272460938 275.7578125 421.211914062 275.7578125 296.969726562 c 0
 275.7578125 172.727539062 375.7578125 69.697265625 500 69.697265625 c 0
500 451.515625 m 1
 500 451.515625 503.030273438 451.515625 500 451.515625 c 1
 584.848632812 451.515625 647 385 645.454101562 300 c 1
 645.454101562 215.151367188 578.788085938 148.484375 496.969726562 148.484375 c 0
 415.151367188 148.484375 348.484375 215.151367188 348.484375 300 c 0
 348.484375 312.12109375 351.515625 327.272460938 354.545898438 339.393554688 c 1
 366.666992188 330.302734375 384.848632812 324.2421875 400 324.2421875 c 0
 442.423828125 324.2421875 475.7578125 357.576171875 475.7578125 400 c 0
 475.7578125 418.181640625 469.697265625 433.333007812 460.606445312 445.454101562 c 1
 472.727539062 448.484375 484.848632812 451.515625 500 451.515625 c 1
EndSplineSet
Validated: 37
EndChar

StartChar: eye_close
Encoding: 57441 57441 59
Width: 1000
Flags: H
LayerCount: 2
Fore
SplineSet
991 -21 m 1
 997 -26 1000 -33 1000 -45 c 0
 1000 -52 996.19330855 -58.1486988848 994 -61 c 2
 964 -100 l 1
 960 -105 952 -109 942 -109 c 0
 936 -109 930.931210621 -106.087584812 927 -103 c 2
 9 618 l 1
 3 623 0 630.302734375 0 639.393554688 c 0
 0 645.454101562 2 649 5 653 c 1
 33.3330078125 693.939453125 l 1
 39 701 44.908203125 704 54 704 c 0
 60.060546875 704 66.3337827261 702.599062432 69.697265625 700 c 2
 269.697265625 545.454101562 l 1
 339.393554688 584.848632812 418.181640625 606.060546875 500 606.060546875 c 0
 693.939453125 606.060546875 860.606445312 490.909179688 945.454101562 324.2421875 c 0
 948.484375 315.151367188 951.515625 309.090820312 951.515625 300 c 0
 951.515625 290.909179688 948.484375 281.818359375 945.454101562 275.7578125 c 0
 912.12109375 215.151367188 869.697265625 160.606445312 818.181640625 115.151367188 c 1
 991 -21 l 1
500 72.7275390625 m 0
 515.151367188 72.7275390625 527.272460938 72.7275390625 539.393554688 72.7275390625 c 1
 621.211914062 9.0908203125 l 1
 581.818359375 -0 542.423828125 -6.060546875 500 -6.060546875 c 0
 306.060546875 -6.060546875 139.393554688 109.090820312 54.5458984375 275.7578125 c 0
 51.515625 284.848632812 48.484375 290.909179688 48.484375 300 c 0
 48.484375 309.090820312 51.515625 318.181640625 54.5458984375 324.2421875 c 0
 69.697265625 354.545898438 90.9091796875 384.848632812 112.12109375 412.12109375 c 1
 275.7578125 284.848632812 l 1
 284.848632812 166.666992188 381.818359375 72.7275390625 500 72.7275390625 c 0
703.030273438 203.030273438 m 1
 718.181640625 233.333007812 724.2421875 263.63671875 724.2421875 300 c 0
 724.2421875 424.2421875 624.2421875 527.272460938 500 527.272460938 c 0
 445.454101562 527.272460938 396.969726562 506.060546875 357.576171875 478.788085938 c 1
 472.727539062 387.87890625 l 1
 475.7578125 390.909179688 477 398.939453125 477 405 c 0
 477 423.181640625 469.697265625 436.36328125 460.606445312 448.484375 c 1
 475.7578125 451.515625 487.87890625 454.545898438 503.030273438 454.545898438 c 0
 584.848632812 454.545898438 651.515625 384.848632812 651.515625 303.030273438 c 0
 651.515625 300 651.515625 300 651.515625 300 c 2
 651.515625 281.818359375 648.484375 266.666992188 642.423828125 251.515625 c 1
 703.030273438 203.030273438 l 1
EndSplineSet
Validated: 1
EndChar

StartChar: selection
Encoding: 57445 57445 60
Width: 1000
Flags: H
LayerCount: 2
Fore
SplineSet
830.302734375 72.7275390625 m 2
 469.697265625 72.7275390625 l 2
 460.606445312 72.7275390625 451.515625 69.697265625 445.454101562 63.63671875 c 2
 190.909179688 -190.909179688 l 2
 169.697265625 -212.12109375 133.333007812 -196.969726562 133.333007812 -166.666992188 c 2
 133.333007812 766.666992188 l 2
 133.333007812 796.969726562 169.697265625 812.12109375 190.909179688 790.909179688 c 2
 681.818359375 300 l 1
 851.515625 130.302734375 l 2
 875.7578125 109.090820312 860.606445312 72.7275390625 830.302734375 72.7275390625 c 2
EndSplineSet
Validated: 33
EndChar

StartChar: trash
Encoding: 57459 57459 61
Width: 1000
Flags: H
LayerCount: 2
Fore
SplineSet
900 736.36328125 m 2
 918.181640625 736.36328125 933.333007812 724.2421875 933.333007812 706.060546875 c 2
 933.333007812 642.423828125 l 2
 933.333007812 627.272460938 921.211914062 612.12109375 903.030273438 612.12109375 c 2
 100 612.12109375 l 2
 84.8486328125 612.12109375 69.697265625 624.2421875 69.697265625 642.423828125 c 2
 69.697265625 706.060546875 l 2
 69.697265625 721.211914062 81.818359375 736.36328125 100 736.36328125 c 2
 327.272460938 736.36328125 l 1
 345.454101562 772.727539062 l 2
 354.545898438 790.909179688 369.697265625 800 387.87890625 800 c 1
 387.87890625 800 l 1
 609.090820312 800 l 1
 609.090820312 800 l 1
 627.272460938 800 645.454101562 787.87890625 651.515625 772.727539062 c 2
 669.697265625 736.36328125 l 1
 900 736.36328125 l 2
169.697265625 -112.12109375 m 2
 130.302734375 551.515625 l 1
 863.63671875 551.515625 l 1
 824.2421875 -112.12109375 l 2
 821.211914062 -160.606445312 781.818359375 -200 733.333007812 -200 c 2
 260.606445312 -200 l 2
 212.12109375 -200 172.727539062 -160.606445312 169.697265625 -112.12109375 c 2
EndSplineSet
Validated: 5
EndChar

StartChar: mouse_pointer
Encoding: 57460 57460 62
Width: 1000
Flags: H
LayerCount: 2
Fore
SplineSet
772.727539062 157.576171875 m 2
 566.666992188 157.576171875 l 1
 675.7578125 -109.090820312 l 2
 681.818359375 -127.272460938 675.7578125 -145.454101562 657.576171875 -154.545898438 c 2
 563.63671875 -196.969726562 l 2
 545.454101562 -206.060546875 524.2421875 -196.969726562 518.181640625 -178.788085938 c 2
 415.151367188 72.7275390625 l 1
 248.484375 -100 l 2
 227.272460938 -124.2421875 190.909179688 -106.060546875 190.909179688 -75.7578125 c 2
 190.909179688 763.63671875 l 2
 190.909179688 796.969726562 230.302734375 812.12109375 248.484375 787.87890625 c 2
 796.969726562 218.181640625 l 2
 818.181640625 196.969726562 803.030273438 157.576171875 772.727539062 157.576171875 c 2
EndSplineSet
Validated: 33
EndChar

StartChar: direct_selection
Encoding: 57444 57444 63
Width: 1000
Flags: H
LayerCount: 2
Fore
SplineSet
233.333007812 606.060546875 m 5
 233.333007812 -9.0908203125 l 1
 375.7578125 133.333007812 l 2
 400 157.576171875 433.333007812 172.727539062 469.697265625 172.727539062 c 2
 669.697265625 172.727539062 l 1
 612.12109375 230.302734375 l 1
 233.333007812 606.060546875 l 5
169.697265625 800 m 1
 169.697265625 800 l 1
 178.788085938 800 187.87890625 796.969726562 193.939453125 790.909179688 c 2
 684.848632812 300 l 1
 854.545898438 130.302734375 l 2
 875.7578125 109.090820312 860.606445312 72.7275390625 830.302734375 72.7275390625 c 2
 472.727539062 72.7275390625 l 2
 463.63671875 72.7275390625 454.545898438 69.697265625 448.484375 63.63671875 c 2
 193.939453125 -190.909179688 l 2
 184.848632812 -196.969726562 178.788085938 -200 169.697265625 -200 c 0
 151.515625 -200 136.36328125 -187.87890625 136.36328125 -166.666992188 c 2
 136.36328125 766.666992188 l 2
 136.36328125 784.848632812 154.545898438 800 169.697265625 800 c 1
EndSplineSet
Validated: 37
EndChar

StartChar: update
Encoding: 57426 57426 64
Width: 1000
Flags: H
LayerCount: 2
Fore
SplineSet
889.697265625 407.87890625 m 2
 888.21484375 407.655273438 886.698242188 407.540039062 885.155273438 407.540039062 c 0
 871.694335938 407.540039062 860.309570312 416.333007812 856.36328125 428.484375 c 0
 804.9921875 573.291015625 666.724609375 677.11328125 504.400390625 677.11328125 c 0
 502.865234375 677.11328125 501.530273438 676.98828125 500 676.969726562 c 1
 500 676.969726562 l 1
 498.59765625 676.985351562 497.194335938 676.993164062 495.788085938 676.993164062 c 0
 334.026367188 676.993164062 196.314453125 574.189453125 144.2421875 430.302734375 c 0
 139.788085938 419.108398438 128.848632812 411.1875 116.07421875 411.1875 c 0
 113.119140625 411.1875 110.27734375 411.633789062 107.576171875 412.423828125 c 2
 49.3935546875 429.393554688 l 2
 37.546875 433.512695312 29.0341796875 444.783203125 29.0341796875 458.025390625 c 0
 29.0341796875 461.03125 29.486328125 463.924804688 30.302734375 466.666992188 c 0
 96.4013671875 659.529296875 279.392578125 798.327148438 494.546875 798.327148438 c 0
 496.447265625 798.327148438 498.104492188 798.203125 500 798.181640625 c 1
 500 798.181640625 l 1
 502.09765625 798.208007812 504.198242188 798.221679688 506.301757812 798.221679688 c 0
 645.98046875 798.221679688 772.073242188 740.131835938 861.818359375 646.666992188 c 1
 861.818359375 709.090820312 l 2
 861.818359375 725.815429688 875.396484375 739.393554688 892.12109375 739.393554688 c 2
 952.727539062 739.393554688 l 2
 969.452148438 739.393554688 983.030273438 725.815429688 983.030273438 709.090820312 c 2
 983.030273438 447.272460938 l 2
 983.03125 447.15625 983.032226562 447.040039062 983.032226562 446.923828125 c 0
 983.032226562 431.75390625 971.831054688 419.177734375 957.272460938 416.969726562 c 2
 889.697265625 407.87890625 l 2
110.302734375 192.12109375 m 2
 111.78515625 192.344726562 113.301757812 192.459960938 114.844726562 192.459960938 c 0
 128.305664062 192.459960938 139.690429688 183.666992188 143.63671875 171.515625 c 0
 195.0078125 26.708984375 333.275390625 -77.11328125 495.599609375 -77.11328125 c 0
 497.134765625 -77.11328125 498.469726562 -76.98828125 500 -76.9697265625 c 1
 500 -76.9697265625 l 1
 501.40234375 -76.9853515625 502.805664062 -76.9931640625 504.211914062 -76.9931640625 c 0
 665.973632812 -76.9931640625 803.685546875 25.810546875 855.7578125 169.697265625 c 0
 860.211914062 180.891601562 871.151367188 188.8125 883.92578125 188.8125 c 0
 886.880859375 188.8125 889.72265625 188.366210938 892.423828125 187.576171875 c 2
 950.606445312 170.606445312 l 2
 962.453125 166.487304688 970.965820312 155.216796875 970.965820312 141.974609375 c 0
 970.965820312 138.96875 970.513671875 136.075195312 969.697265625 133.333007812 c 0
 903.598632812 -59.529296875 720.607421875 -198.327148438 505.453125 -198.327148438 c 0
 503.552734375 -198.327148438 501.895507812 -198.203125 500 -198.181640625 c 1
 500 -198.181640625 l 1
 497.90234375 -198.208007812 495.801757812 -198.221679688 493.698242188 -198.221679688 c 0
 354.01953125 -198.221679688 227.926757812 -140.131835938 138.181640625 -46.6669921875 c 1
 138.181640625 -109.090820312 l 2
 138.181640625 -125.815429688 124.603515625 -139.393554688 107.87890625 -139.393554688 c 2
 47.2724609375 -139.393554688 l 2
 30.5478515625 -139.393554688 16.9697265625 -125.815429688 16.9697265625 -109.090820312 c 2
 16.9697265625 152.12109375 l 2
 16.96875 152.237304688 16.9677734375 152.353515625 16.9677734375 152.469726562 c 0
 16.9677734375 167.640625 28.1689453125 180.216796875 42.7275390625 182.423828125 c 2
 110.302734375 192.12109375 l 2
EndSplineSet
EndChar

StartChar: update_2
Encoding: 57427 57427 65
Width: 1000
Flags: H
LayerCount: 2
Fore
SplineSet
863.939453125 599.090820312 m 1
 935.151367188 669.697265625 l 2
 940.619140625 675.057617188 948.112304688 678.354492188 956.366210938 678.354492188 c 0
 972.946289062 678.354492188 986.434570312 665.009765625 986.666992188 648.484375 c 2
 986.666992188 421.211914062 l 2
 986.666992188 404.487304688 973.087890625 390.909179688 956.36328125 390.909179688 c 2
 729.090820312 390.909179688 l 2
 729.03125 390.909179688 728.969726562 390.912109375 728.91015625 390.912109375 c 0
 712.185546875 390.912109375 698.606445312 404.490234375 698.606445312 421.21484375 c 0
 698.606445312 429.623046875 702.038085938 437.235351562 707.576171875 442.727539062 c 2
 777.87890625 513.030273438 l 2
 708.260742188 596.2890625 603.86328125 649.1953125 486.952148438 649.1953125 c 0
 323.063476562 649.1953125 183.306640625 545.053710938 130.302734375 399.393554688 c 0
 125.897460938 388.09765625 114.92578125 380.104492188 102.078125 380.104492188 c 0
 99.2587890625 380.104492188 96.529296875 380.490234375 93.939453125 381.211914062 c 2
 35.4541015625 398.181640625 l 2
 22.7705078125 401.801757812 13.474609375 413.482421875 13.474609375 427.322265625 c 0
 13.474609375 430.470703125 13.9560546875 433.5078125 14.8486328125 436.36328125 c 0
 83.517578125 630.932617188 268.87109375 770.611328125 486.819335938 770.611328125 c 0
 637.177734375 770.611328125 772.142578125 704.1796875 863.939453125 599.090820312 c 1
906.060546875 217.87890625 m 2
 963.939453125 200.909179688 l 2
 976.66796875 197.318359375 986.006835938 185.612304688 986.006835938 171.741210938 c 0
 986.006835938 168.491210938 985.494140625 165.360351562 984.545898438 162.423828125 c 0
 915.4375 -31.3310546875 730.497070312 -170.252929688 513.131835938 -170.252929688 c 0
 362.799804688 -170.252929688 227.856445312 -103.84375 136.060546875 1.2119140625 c 1
 64.8486328125 -70 l 2
 59.380859375 -75.359375 51.888671875 -78.66015625 43.6357421875 -78.66015625 c 0
 26.9541015625 -78.66015625 13.40234375 -65.1513671875 13.3330078125 -48.484375 c 2
 13.3330078125 178.788085938 l 2
 13.3330078125 195.512695312 26.912109375 209.090820312 43.63671875 209.090820312 c 2
 270.909179688 209.090820312 l 2
 270.96875 209.090820312 271.030273438 209.087890625 271.08984375 209.087890625 c 0
 287.814453125 209.087890625 301.393554688 195.509765625 301.393554688 178.78515625 c 0
 301.393554688 170.376953125 297.961914062 162.764648438 292.423828125 157.272460938 c 2
 221.818359375 86.9697265625 l 2
 291.4921875 3.5712890625 396.015625 -49.4365234375 513.080078125 -49.4365234375 c 0
 676.774414062 -49.4365234375 816.413085938 54.375 869.697265625 199.697265625 c 0
 874.102539062 210.993164062 885.07421875 218.986328125 897.921875 218.986328125 c 0
 900.741210938 218.986328125 903.470703125 218.600585938 906.060546875 217.87890625 c 2
EndSplineSet
EndChar

StartChar: configuration_2
Encoding: 57431 57431 66
Width: 1000
Flags: H
LayerCount: 2
Fore
SplineSet
1000 254.545898438 m 2
 999.510742188 238.247070312 986.125976562 225.151367188 969.7109375 225.151367188 c 2
 969.697265625 225.151367188 l 1
 911.515625 225.151367188 l 2
 911.264648438 225.157226562 911.02734375 225.141601562 910.776367188 225.141601562 c 0
 896.344726562 225.141601562 884.255859375 215.032226562 881.211914062 201.515625 c 0
 871.932617188 166.221679688 857.712890625 132.272460938 839.697265625 101.515625 c 0
 836.834960938 96.8896484375 835.159179688 91.400390625 835.159179688 85.5654296875 c 0
 835.159179688 77.25390625 838.512695312 69.7197265625 843.939453125 64.2421875 c 2
 885.7578125 22.423828125 l 2
 891.294921875 16.9326171875 894.725585938 9.3125 894.725585938 0.9052734375 c 0
 894.725585938 -7.501953125 891.294921875 -15.1142578125 885.7578125 -20.6064453125 c 2
 821.515625 -84.8486328125 l 2
 816.0234375 -90.3857421875 808.403320312 -93.8173828125 799.99609375 -93.8173828125 c 0
 791.588867188 -93.8173828125 783.9765625 -90.3857421875 778.484375 -84.8486328125 c 2
 736.666992188 -43.0302734375 l 2
 731.189453125 -37.603515625 723.618164062 -34.2724609375 715.306640625 -34.2724609375 c 0
 709.471679688 -34.2724609375 704.01953125 -35.92578125 699.393554688 -38.7880859375 c 0
 668.63671875 -56.8037109375 634.6875 -71.0234375 599.393554688 -80.302734375 c 0
 585.876953125 -83.34765625 575.748046875 -95.421875 575.748046875 -109.853515625 c 0
 575.748046875 -110.104492188 575.750976562 -110.35546875 575.7578125 -110.606445312 c 2
 575.7578125 -169.697265625 l 2
 575.7578125 -186.421875 562.1796875 -200 545.454101562 -200 c 2
 454.545898438 -200 l 2
 437.8203125 -200 424.2421875 -186.421875 424.2421875 -169.697265625 c 2
 424.2421875 -111.515625 l 2
 424.249023438 -111.264648438 424.232421875 -111.02734375 424.232421875 -110.776367188 c 0
 424.232421875 -96.3447265625 414.123046875 -84.255859375 400.606445312 -81.2119140625 c 0
 365.3125 -71.9326171875 331.36328125 -57.712890625 300.606445312 -39.697265625 c 0
 295.98046875 -36.8349609375 290.491210938 -35.1591796875 284.65625 -35.1591796875 c 0
 276.344726562 -35.1591796875 268.810546875 -38.5126953125 263.333007812 -43.939453125 c 2
 221.515625 -85.7578125 l 2
 216.0234375 -91.294921875 208.403320312 -94.7255859375 199.99609375 -94.7255859375 c 0
 191.588867188 -94.7255859375 183.9765625 -91.294921875 178.484375 -85.7578125 c 2
 114.2421875 -21.515625 l 2
 108.705078125 -16.0234375 105.274414062 -8.4033203125 105.274414062 0.00390625 c 0
 105.274414062 8.4111328125 108.705078125 16.0234375 114.2421875 21.515625 c 2
 158.484375 63.3330078125 l 2
 163.911132812 68.810546875 167.2421875 76.3818359375 167.2421875 84.693359375 c 0
 167.2421875 90.5283203125 165.58984375 95.98046875 162.727539062 100.606445312 c 0
 144.7109375 131.36328125 130.4921875 165.3125 121.211914062 200.606445312 c 0
 118.16796875 214.123046875 106.09375 224.251953125 91.662109375 224.251953125 c 0
 91.41015625 224.251953125 91.1591796875 224.249023438 90.9091796875 224.2421875 c 2
 30.302734375 224.2421875 l 2
 13.578125 224.2421875 0 237.8203125 0 254.545898438 c 2
 0 345.454101562 l 2
 0 362.1796875 13.578125 375.7578125 30.302734375 375.7578125 c 2
 90.9091796875 375.7578125 l 2
 104.587890625 376.522460938 115.87890625 386.397460938 118.788085938 399.393554688 c 0
 128.067382812 434.6875 142.287109375 468.63671875 160.302734375 499.393554688 c 0
 163.165039062 504.01953125 164.840820312 509.508789062 164.840820312 515.34375 c 0
 164.840820312 523.655273438 161.487304688 531.189453125 156.060546875 536.666992188 c 2
 114.2421875 578.484375 l 2
 108.705078125 583.9765625 105.274414062 591.596679688 105.274414062 600.00390625 c 0
 105.274414062 608.411132812 108.705078125 616.0234375 114.2421875 621.515625 c 2
 178.484375 685.7578125 l 2
 183.9765625 691.294921875 191.596679688 694.725585938 200.00390625 694.725585938 c 0
 208.411132812 694.725585938 216.0234375 691.294921875 221.515625 685.7578125 c 2
 263.333007812 641.515625 l 2
 268.810546875 636.088867188 276.381835938 632.7578125 284.693359375 632.7578125 c 0
 290.528320312 632.7578125 295.98046875 634.41015625 300.606445312 637.272460938 c 0
 331.36328125 655.2890625 365.3125 669.5078125 400.606445312 678.788085938 c 0
 414.123046875 681.83203125 424.251953125 693.90625 424.251953125 708.337890625 c 0
 424.251953125 708.58984375 424.249023438 708.840820312 424.2421875 709.090820312 c 2
 424.2421875 769.697265625 l 2
 424.2421875 786.421875 437.8203125 800 454.545898438 800 c 2
 545.454101562 800 l 2
 562.1796875 800 575.7578125 786.421875 575.7578125 769.697265625 c 2
 575.7578125 709.090820312 l 2
 576.522460938 695.412109375 586.397460938 684.12109375 599.393554688 681.211914062 c 0
 634.6875 671.932617188 668.63671875 657.712890625 699.393554688 639.697265625 c 0
 704.01953125 636.834960938 709.508789062 635.159179688 715.34375 635.159179688 c 0
 723.655273438 635.159179688 731.189453125 638.512695312 736.666992188 643.939453125 c 2
 778.484375 685.7578125 l 2
 783.9765625 691.294921875 791.596679688 694.725585938 800.00390625 694.725585938 c 0
 808.411132812 694.725585938 816.0234375 691.294921875 821.515625 685.7578125 c 2
 884.848632812 621.515625 l 2
 890.385742188 616.0234375 893.817382812 608.403320312 893.817382812 599.99609375 c 0
 893.817382812 591.588867188 890.385742188 583.9765625 884.848632812 578.484375 c 2
 843.030273438 536.666992188 l 2
 837.603515625 531.189453125 834.272460938 523.618164062 834.272460938 515.306640625 c 0
 834.272460938 509.471679688 835.92578125 504.01953125 838.788085938 499.393554688 c 0
 856.803710938 468.63671875 871.0234375 434.6875 880.302734375 399.393554688 c 0
 883.34765625 385.876953125 895.421875 375.748046875 909.853515625 375.748046875 c 0
 910.104492188 375.748046875 910.35546875 375.750976562 910.606445312 375.7578125 c 2
 969.697265625 375.7578125 l 2
 986.421875 375.7578125 1000 362.1796875 1000 345.454101562 c 2
 1000 254.545898438 l 2
500 27.2724609375 m 0
 650.522460938 27.2724609375 772.727539062 149.477539062 772.727539062 300 c 0
 772.727539062 450.522460938 650.522460938 572.727539062 500 572.727539062 c 0
 349.477539062 572.727539062 227.272460938 450.522460938 227.272460938 300 c 0
 227.272460938 149.477539062 349.477539062 27.2724609375 500 27.2724609375 c 0
EndSplineSet
EndChar

StartChar: configuration
Encoding: 57432 57432 67
Width: 1000
Flags: H
LayerCount: 2
Fore
SplineSet
971.515625 129.090820312 m 2
 988.240234375 129.090820312 1001.81835938 115.512695312 1001.81835938 98.7880859375 c 2
 1001.81835938 38.181640625 l 2
 1001.81835938 21.45703125 988.240234375 7.87890625 971.515625 7.87890625 c 2
 493.030273438 7.87890625 l 2
 467.392578125 -73.7646484375 391.161132812 -133.056640625 301.103515625 -133.056640625 c 0
 211.046875 -133.056640625 134.728515625 -73.7646484375 109.090820312 7.87890625 c 2
 30.302734375 7.87890625 l 2
 13.578125 7.87890625 0 21.45703125 0 38.181640625 c 2
 0 98.7880859375 l 2
 0 115.512695312 13.578125 129.090820312 30.302734375 129.090820312 c 2
 109.090820312 129.090820312 l 2
 134.728515625 210.734375 210.959960938 270.026367188 301.017578125 270.026367188 c 0
 391.07421875 270.026367188 467.392578125 210.734375 493.030273438 129.090820312 c 2
 971.515625 129.090820312 l 2
301.211914062 -11.515625 m 0
 345.288085938 -11.349609375 381.045898438 24.408203125 381.211914062 68.484375 c 0
 381.212890625 68.587890625 381.20703125 68.6845703125 381.20703125 68.787109375 c 0
 381.20703125 113.107421875 345.224609375 149.08984375 300.904296875 149.08984375 c 0
 256.583007812 149.08984375 220.600585938 113.107421875 220.600585938 68.787109375 c 0
 220.600585938 24.466796875 256.583007812 -11.515625 300.904296875 -11.515625 c 0
 301.006835938 -11.515625 301.109375 -11.515625 301.211914062 -11.515625 c 0
971.515625 590.302734375 m 2
 988.240234375 590.302734375 1001.81835938 576.724609375 1001.81835938 560 c 2
 1001.81835938 499.393554688 l 2
 1001.81835938 482.668945312 988.240234375 469.090820312 971.515625 469.090820312 c 2
 892.727539062 469.090820312 l 2
 866.91796875 387.547851562 790.68359375 328.375976562 700.650390625 328.375976562 c 0
 610.6171875 328.375976562 534.294921875 387.547851562 508.484375 469.090820312 c 2
 30.302734375 469.090820312 l 2
 13.578125 469.090820312 0 482.668945312 0 499.393554688 c 2
 0 560 l 2
 0 576.724609375 13.578125 590.302734375 30.302734375 590.302734375 c 2
 508.484375 590.302734375 l 2
 534.294921875 671.845703125 610.528320312 731.018554688 700.561523438 731.018554688 c 0
 790.595703125 731.018554688 866.91796875 671.845703125 892.727539062 590.302734375 c 2
 971.515625 590.302734375 l 2
700.606445312 449.697265625 m 0
 700.708984375 449.696289062 700.805664062 449.697265625 700.909179688 449.697265625 c 0
 745.0625 449.697265625 780.909179688 485.543945312 780.909179688 529.697265625 c 0
 780.909179688 529.799804688 780.91015625 529.897460938 780.91015625 530 c 0
 780.91015625 574.3203125 744.926757812 610.302734375 700.606445312 610.302734375 c 0
 656.286132812 610.302734375 620.303710938 574.3203125 620.303710938 530 c 0
 620.303710938 485.6796875 656.286132812 449.697265625 700.606445312 449.697265625 c 0
EndSplineSet
EndChar

StartChar: about
Encoding: 57433 57433 68
Width: 1000
Flags: H
LayerCount: 2
Fore
SplineSet
500 739.393554688 m 0
 742.5078125 739.393554688 939.393554688 542.5078125 939.393554688 300 c 0
 939.393554688 57.4921875 742.5078125 -139.393554688 500 -139.393554688 c 0
 257.4921875 -139.393554688 60.6064453125 57.4921875 60.6064453125 300 c 0
 60.6064453125 542.5078125 257.4921875 739.393554688 500 739.393554688 c 0
560.606445312 107.272460938 m 2
 560.606445312 123.997070312 547.02734375 137.576171875 530.302734375 137.576171875 c 2
 469.697265625 137.576171875 l 2
 452.97265625 137.576171875 439.393554688 123.997070312 439.393554688 107.272460938 c 2
 439.393554688 46.6669921875 l 2
 439.393554688 29.9423828125 452.97265625 16.36328125 469.697265625 16.36328125 c 2
 530.302734375 16.36328125 l 2
 547.02734375 16.36328125 560.606445312 29.9423828125 560.606445312 46.6669921875 c 2
 560.606445312 107.272460938 l 2
560.606445312 234.848632812 m 2
 560.606445312 540.606445312 l 2
 559.35546875 556.185546875 546.30078125 568.485351562 530.40234375 568.485351562 c 0
 530.369140625 568.485351562 530.3359375 568.485351562 530.302734375 568.484375 c 2
 469.697265625 568.484375 l 2
 469.6640625 568.485351562 469.631835938 568.456054688 469.598632812 568.456054688 c 0
 453.700195312 568.456054688 440.64453125 556.185546875 439.393554688 540.606445312 c 2
 439.393554688 234.848632812 l 2
 440.7890625 219.4140625 453.776367188 207.272460938 469.571289062 207.272460938 c 0
 469.61328125 207.272460938 469.655273438 207.272460938 469.697265625 207.272460938 c 2
 530.302734375 207.272460938 l 2
 530.344726562 207.272460938 530.384765625 207.302734375 530.426757812 207.302734375 c 0
 546.22265625 207.302734375 559.2109375 219.4140625 560.606445312 234.848632812 c 2
EndSplineSet
EndChar

StartChar: change_log
Encoding: 57434 57434 69
Width: 1000
Flags: H
LayerCount: 2
Fore
SplineSet
272.727539062 698.484375 m 2
 272.727539062 713.63671875 272.727539062 713.63671875 287.87890625 713.63671875 c 2
 984.848632812 713.63671875 l 2
 1000 713.63671875 1000 713.63671875 1000 698.484375 c 2
 1000 637.87890625 l 2
 1000 622.727539062 1000 622.727539062 984.848632812 622.727539062 c 2
 287.87890625 622.727539062 l 2
 272.727539062 622.727539062 272.727539062 622.727539062 272.727539062 637.87890625 c 2
 272.727539062 698.484375 l 2
181.818359375 453.030273438 m 2
 181.818359375 468.181640625 181.818359375 468.181640625 196.969726562 468.181640625 c 2
 984.848632812 468.181640625 l 2
 1000 468.181640625 1000 468.181640625 1000 453.030273438 c 2
 1000 392.423828125 l 2
 1000 377.272460938 1000 377.272460938 984.848632812 377.272460938 c 2
 196.969726562 377.272460938 l 2
 181.818359375 377.272460938 181.818359375 377.272460938 181.818359375 392.423828125 c 2
 181.818359375 453.030273438 l 2
333.333007812 207.576171875 m 2
 333.333007812 222.727539062 333.333007812 222.727539062 348.484375 222.727539062 c 2
 984.848632812 222.727539062 l 2
 1000 222.727539062 1000 222.727539062 1000 207.576171875 c 2
 1000 146.969726562 l 2
 1000 131.818359375 1000 131.818359375 984.848632812 131.818359375 c 2
 348.484375 131.818359375 l 2
 333.333007812 131.818359375 333.333007812 131.818359375 333.333007812 146.969726562 c 2
 333.333007812 207.576171875 l 2
0 698.484375 m 2
 0 713.63671875 0 713.63671875 15.1513671875 713.63671875 c 2
 196.969726562 713.63671875 l 2
 212.12109375 713.63671875 212.12109375 713.63671875 212.12109375 698.484375 c 2
 212.12109375 637.87890625 l 2
 212.12109375 622.727539062 212.12109375 622.727539062 196.969726562 622.727539062 c 2
 15.1513671875 622.727539062 l 2
 0 622.727539062 0 622.727539062 0 637.87890625 c 2
 0 698.484375 l 2
0 453.030273438 m 2
 0 468.181640625 0 468.181640625 15.1513671875 468.181640625 c 2
 106.060546875 468.181640625 l 2
 121.211914062 468.181640625 121.211914062 468.181640625 121.211914062 453.030273438 c 2
 121.211914062 392.423828125 l 2
 121.211914062 377.272460938 121.211914062 377.272460938 106.060546875 377.272460938 c 2
 15.1513671875 377.272460938 l 2
 0 377.272460938 0 377.272460938 0 392.423828125 c 2
 0 453.030273438 l 2
0 207.576171875 m 2
 0 222.727539062 0 222.727539062 15.1513671875 222.727539062 c 2
 257.576171875 222.727539062 l 2
 272.727539062 222.727539062 272.727539062 222.727539062 272.727539062 207.576171875 c 2
 272.727539062 146.969726562 l 2
 272.727539062 131.818359375 272.727539062 131.818359375 257.576171875 131.818359375 c 2
 15.1513671875 131.818359375 l 2
 0 131.818359375 0 131.818359375 0 146.969726562 c 2
 0 207.576171875 l 2
212.12109375 -37.87890625 m 2
 212.12109375 -22.7275390625 212.12109375 -22.7275390625 227.272460938 -22.7275390625 c 2
 378.788085938 -22.7275390625 l 2
 393.939453125 -22.7275390625 393.939453125 -22.7275390625 393.939453125 -37.87890625 c 2
 393.939453125 -98.484375 l 2
 393.939453125 -113.63671875 393.939453125 -113.63671875 378.788085938 -113.63671875 c 2
 227.272460938 -113.63671875 l 2
 212.12109375 -113.63671875 212.12109375 -113.63671875 212.12109375 -98.484375 c 2
 212.12109375 -37.87890625 l 2
54.5458984375 -186.060546875 m 2
 11.515625 -143.030273438 l 2
 8.8359375 -140.296875 7.1826171875 -136.553710938 7.1826171875 -132.426757812 c 0
 7.1826171875 -128.30078125 8.8359375 -124.551757812 11.515625 -121.818359375 c 2
 65.1513671875 -68.181640625 l 1
 11.515625 -14.5458984375 l 2
 8.8359375 -11.8115234375 7.1826171875 -8.068359375 7.1826171875 -3.9423828125 c 0
 7.1826171875 0.18359375 8.8359375 3.93359375 11.515625 6.6669921875 c 2
 54.5458984375 49.697265625 l 2
 57.279296875 52.3759765625 61.0224609375 54.029296875 65.1484375 54.029296875 c 0
 69.275390625 54.029296875 73.0244140625 52.3759765625 75.7578125 49.697265625 c 2
 181.818359375 -57.576171875 l 2
 184.498046875 -60.3095703125 186.150390625 -64.052734375 186.150390625 -68.1787109375 c 0
 186.150390625 -72.3056640625 184.498046875 -76.0546875 181.818359375 -78.7880859375 c 2
 75.7578125 -186.060546875 l 2
 73.0244140625 -188.740234375 69.2802734375 -190.393554688 65.154296875 -190.393554688 c 0
 61.0283203125 -190.393554688 57.279296875 -188.740234375 54.5458984375 -186.060546875 c 2
EndSplineSet
EndChar

StartChar: donwload
Encoding: 57435 57435 70
Width: 1000
Flags: H
LayerCount: 2
Fore
SplineSet
776.666992188 481.515625 m 1
 777.576171875 481.515625 l 2
 906.548828125 445.158203125 1001.26464844 326.596679688 1001.26464844 186.060546875 c 0
 1001.26464844 16.6396484375 863.715820312 -120.909179688 694.294921875 -120.909179688 c 0
 694.17578125 -120.909179688 694.057617188 -120.909179688 693.939453125 -120.909179688 c 2
 269.697265625 -120.909179688 l 2
 121.021484375 -120.310546875 0.45703125 0.513671875 0.45703125 149.329101562 c 0
 0.45703125 269.606445312 79.1865234375 371.640625 187.87890625 406.666992188 c 0
 187.87890625 412.423828125 187.87890625 417.87890625 187.87890625 423.63671875 c 0
 188.068359375 587.544921875 321.197265625 720.334960938 485.149414062 720.334960938 c 0
 629.213867188 720.334960938 749.48046875 617.634765625 776.666992188 481.515625 c 1
650 199.697265625 m 0
 655.627929688 205.200195312 659.123046875 212.880859375 659.123046875 221.366210938 c 0
 659.123046875 229.8515625 655.627929688 237.52734375 650 243.030273438 c 2
 628.484375 264.2421875 l 2
 623.004882812 269.689453125 615.446289062 273.057617188 607.116210938 273.057617188 c 0
 598.787109375 273.057617188 591.237304688 269.689453125 585.7578125 264.2421875 c 2
 545.454101562 224.2421875 l 1
 545.454101562 386.36328125 l 2
 545.454101562 403.087890625 531.875976562 416.666992188 515.151367188 416.666992188 c 2
 484.848632812 416.666992188 l 2
 468.124023438 416.666992188 454.545898438 403.087890625 454.545898438 386.36328125 c 2
 454.545898438 224.2421875 l 1
 414.2421875 263.939453125 l 2
 408.75 269.4765625 401.130859375 272.908203125 392.723632812 272.908203125 c 0
 384.31640625 272.908203125 376.704101562 269.4765625 371.211914062 263.939453125 c 2
 350 242.423828125 l 2
 344.552734375 236.944335938 341.184570312 229.385742188 341.184570312 221.055664062 c 0
 341.184570312 212.7265625 344.552734375 205.176757812 350 199.697265625 c 2
 478.484375 70.9091796875 l 2
 483.96484375 65.4619140625 491.5234375 62.09375 499.853515625 62.09375 c 0
 508.182617188 62.09375 515.732421875 65.4619140625 521.211914062 70.9091796875 c 0
 554.848632812 104.545898438 616.060546875 165.454101562 650 199.697265625 c 0
EndSplineSet
EndChar

StartChar: idea
Encoding: 57436 57436 71
Width: 1000
Flags: H
LayerCount: 2
Fore
SplineSet
878.788085938 345.454101562 m 2
 984.848632812 345.454101562 l 2
 993.2109375 345.454101562 1000 338.665039062 1000 330.302734375 c 2
 1000 269.697265625 l 2
 1000 261.334960938 993.2109375 254.545898438 984.848632812 254.545898438 c 2
 878.788085938 254.545898438 l 2
 870.42578125 254.545898438 863.63671875 261.334960938 863.63671875 269.697265625 c 2
 863.63671875 330.302734375 l 2
 863.63671875 338.665039062 870.42578125 345.454101562 878.788085938 345.454101562 c 2
15.1513671875 345.454101562 m 2
 121.211914062 345.454101562 l 2
 129.57421875 345.454101562 136.36328125 338.665039062 136.36328125 330.302734375 c 2
 136.36328125 269.697265625 l 2
 136.36328125 261.334960938 129.57421875 254.545898438 121.211914062 254.545898438 c 2
 15.1513671875 254.545898438 l 2
 6.7890625 254.545898438 0 261.334960938 0 269.697265625 c 2
 0 330.302734375 l 2
 0 338.665039062 6.7890625 345.454101562 15.1513671875 345.454101562 c 2
545.454101562 784.848632812 m 2
 545.454101562 678.788085938 l 2
 545.454101562 670.42578125 538.665039062 663.63671875 530.302734375 663.63671875 c 2
 469.697265625 663.63671875 l 2
 461.334960938 663.63671875 454.545898438 670.42578125 454.545898438 678.788085938 c 2
 454.545898438 784.848632812 l 2
 454.545898438 793.2109375 461.334960938 800 469.697265625 800 c 2
 530.302734375 800 l 2
 538.665039062 800 545.454101562 793.2109375 545.454101562 784.848632812 c 2
188.788085938 675.454101562 m 2
 264.2421875 599.697265625 l 2
 267.0703125 597.04296875 268.837890625 593.271484375 268.837890625 589.090820312 c 0
 268.837890625 584.91015625 267.0703125 581.139648438 264.2421875 578.484375 c 2
 221.211914062 535.7578125 l 2
 218.465820312 532.989257812 214.66015625 531.2734375 210.456054688 531.2734375 c 0
 206.252929688 531.2734375 202.443359375 532.989257812 199.697265625 535.7578125 c 2
 124.2421875 610.606445312 l 2
 121.544921875 613.388671875 119.8828125 617.181640625 119.8828125 621.360351562 c 0
 119.8828125 625.538085938 121.544921875 629.338867188 124.2421875 632.12109375 c 2
 167.576171875 675.454101562 l 2
 170.23046875 678.283203125 174.000976562 680.05078125 178.182617188 680.05078125 c 0
 182.36328125 680.05078125 186.133789062 678.283203125 188.788085938 675.454101562 c 2
735.7578125 600.302734375 m 2
 810.606445312 675.454101562 l 2
 813.352539062 678.223632812 817.158203125 679.938476562 821.362304688 679.938476562 c 0
 825.565429688 679.938476562 829.375 678.223632812 832.12109375 675.454101562 c 2
 875.7578125 632.12109375 l 2
 878.526367188 629.375 880.2421875 625.569335938 880.2421875 621.365234375 c 0
 880.2421875 617.162109375 878.526367188 613.352539062 875.7578125 610.606445312 c 2
 800.302734375 535.7578125 l 2
 797.556640625 532.989257812 793.750976562 531.2734375 789.546875 531.2734375 c 0
 785.34375 531.2734375 781.534179688 532.989257812 778.788085938 535.7578125 c 2
 735.7578125 578.788085938 l 2
 732.989257812 581.534179688 731.2734375 585.33984375 731.2734375 589.543945312 c 0
 731.2734375 593.747070312 732.989257812 597.556640625 735.7578125 600.302734375 c 2
500 572.727539062 m 0
 500.103515625 572.727539062 500.206054688 572.727539062 500.309570312 572.727539062 c 0
 650.83203125 572.727539062 773.037109375 450.522460938 773.037109375 300 c 0
 773.037109375 198.893554688 718.184570312 110.736328125 636.36328125 63.63671875 c 2
 636.36328125 -18.181640625 l 2
 636.36328125 -43.2685546875 615.99609375 -63.63671875 590.909179688 -63.63671875 c 2
 409.090820312 -63.63671875 l 2
 384.00390625 -63.63671875 363.63671875 -43.2685546875 363.63671875 -18.181640625 c 2
 363.63671875 63.63671875 l 2
 281.815429688 110.736328125 226.676757812 199.06640625 226.676757812 300.173828125 c 0
 226.676757812 450.6953125 348.881835938 572.900390625 499.404296875 572.900390625 c 0
 499.5078125 572.900390625 499.896484375 572.727539062 500 572.727539062 c 0
590.909179688 -109.090820312 m 1
 590.909179688 -154.545898438 l 2
 590.909179688 -179.6328125 570.541992188 -200 545.454101562 -200 c 2
 454.545898438 -200 l 2
 429.458007812 -200 409.090820312 -179.6328125 409.090820312 -154.545898438 c 2
 409.090820312 -109.090820312 l 1
 590.909179688 -109.090820312 l 1
454.545898438 27.2724609375 m 1
 545.454101562 27.2724609375 l 1
 545.454101562 124.2421875 l 2
 623.801757812 144.471679688 681.749023438 215.674804688 681.749023438 300.3046875 c 0
 681.749023438 400.653320312 600.279296875 482.123046875 499.930664062 482.123046875 c 0
 399.583007812 482.123046875 318.112304688 400.653320312 318.112304688 300.3046875 c 0
 318.112304688 215.674804688 376.198242188 144.471679688 454.545898438 124.2421875 c 2
 454.545898438 27.2724609375 l 1
EndSplineSet
EndChar

StartChar: faq
Encoding: 57437 57437 72
Width: 1000
Flags: H
LayerCount: 2
Fore
SplineSet
779.090820312 180.909179688 m 2
 190.606445312 180.909179688 l 1
 25.7578125 16.36328125 l 2
 23.0234375 13.68359375 19.2802734375 12.029296875 15.1533203125 12.029296875 c 0
 6.86328125 12.029296875 0.1162109375 18.70703125 0 26.9697265625 c 2
 0 739.393554688 l 2
 0 772.84375 27.15625 800 60.6064453125 800 c 2
 779.090820312 800 l 2
 795.815429688 800 809.393554688 786.421875 809.393554688 769.697265625 c 2
 809.393554688 211.211914062 l 2
 809.393554688 194.487304688 795.815429688 180.909179688 779.090820312 180.909179688 c 2
974.2421875 -174.2421875 m 2
 809.393554688 -9.3935546875 l 1
 268.484375 -9.3935546875 l 2
 251.759765625 -9.3935546875 238.181640625 4.1845703125 238.181640625 20.9091796875 c 2
 238.181640625 85.7578125 l 1
 844.2421875 85.7578125 l 2
 877.69140625 85.7578125 904.848632812 112.9140625 904.848632812 146.36328125 c 2
 904.848632812 514.2421875 l 1
 969.697265625 514.2421875 l 2
 986.421875 514.2421875 1000 500.6640625 1000 483.939453125 c 2
 1000 -163.333007812 l 2
 1000 -163.36328125 1000 -163.393554688 1000 -163.423828125 c 0
 1000 -171.786132812 993.2109375 -178.575195312 984.848632812 -178.575195312 c 0
 980.72265625 -178.575195312 976.975585938 -176.921875 974.2421875 -174.2421875 c 2
293.939453125 704.848632812 m 0
 291.521484375 704.952148438 289.090820312 705.00390625 286.6484375 705.00390625 c 0
 252.163085938 705.00390625 220.028320312 694.5 193.333007812 676.666992188 c 0
 178.149414062 664.947265625 166.727539062 648.743164062 160.909179688 630 c 0
 160.060546875 627.208984375 159.604492188 624.249023438 159.604492188 621.182617188 c 0
 159.604492188 604.458007812 173.182617188 590.879882812 189.907226562 590.879882812 c 0
 190.352539062 590.879882812 190.770507812 590.889648438 191.211914062 590.909179688 c 2
 227.576171875 590.909179688 l 2
 239.321289062 591.463867188 249.186523438 599.298828125 252.727539062 610 c 0
 254.865234375 615.3828125 258.190429688 620.125976562 262.423828125 623.939453125 c 0
 270.690429688 630.680664062 281.2578125 634.768554688 292.727539062 634.848632812 c 0
 293.329101562 634.870117188 293.93359375 634.881835938 294.541015625 634.881835938 c 0
 307.561523438 634.881835938 319.391601562 629.799804688 328.181640625 621.515625 c 0
 335.955078125 612.744140625 340.676757812 601.208007812 340.676757812 588.577148438 c 0
 340.676757812 587.625976562 340.659179688 586.696289062 340.606445312 585.7578125 c 0
 340.63671875 584.922851562 340.65234375 584.084960938 340.65234375 583.243164062 c 0
 340.65234375 569.752929688 336.596679688 557.165039062 329.697265625 546.666992188 c 0
 322.00390625 534.939453125 311.689453125 525.331054688 299.393554688 518.484375 c 0
 280.159179688 507.0234375 263.405273438 492.478515625 249.393554688 475.151367188 c 0
 246.2421875 470.9375 243.670898438 466.234375 241.818359375 461.211914062 c 0
 240.240234375 457.543945312 239.366210938 453.502929688 239.366210938 449.259765625 c 0
 239.366210938 432.53515625 252.944335938 418.95703125 269.668945312 418.95703125 c 0
 270.716796875 418.95703125 271.70703125 418.987304688 272.727539062 419.090820312 c 2
 305.7578125 419.090820312 l 2
 306.0078125 419.084960938 306.258789062 419.08203125 306.510742188 419.08203125 c 0
 320.94140625 419.08203125 333.016601562 429.209960938 336.060546875 442.727539062 c 0
 336.962890625 446.711914062 338.310546875 450.622070312 340 454.2421875 c 0
 345.766601562 464.560546875 354.083007812 473.079101562 364.2421875 479.090820312 c 0
 382.518554688 488.384765625 398.541992188 500.984375 411.818359375 516.36328125 c 0
 428.043945312 536.130859375 437.787109375 561.41796875 437.787109375 588.962890625 c 0
 437.787109375 595.20703125 437.327148438 601.298828125 436.36328125 607.272460938 c 0
 432.502929688 633.155273438 419.064453125 655.974609375 399.697265625 671.818359375 c 0
 373.172851562 692.643554688 339.74609375 705.067382812 303.440429688 705.067382812 c 0
 300.247070312 705.067382812 297.0859375 705.038085938 293.939453125 704.848632812 c 0
238.181640625 306.36328125 m 2
 238.181640625 289.638671875 251.759765625 276.060546875 268.484375 276.060546875 c 2
 303.030273438 276.060546875 l 2
 319.754882812 276.060546875 333.333007812 289.638671875 333.333007812 306.36328125 c 2
 333.333007812 341.211914062 l 2
 333.333007812 357.936523438 319.754882812 371.515625 303.030273438 371.515625 c 2
 268.484375 371.515625 l 2
 251.759765625 371.515625 238.181640625 357.936523438 238.181640625 341.211914062 c 2
 238.181640625 306.36328125 l 2
588.788085938 276.060546875 m 2
 605.512695312 276.060546875 619.090820312 289.638671875 619.090820312 306.36328125 c 2
 619.090820312 341.211914062 l 2
 619.090820312 357.936523438 605.512695312 371.515625 588.788085938 371.515625 c 2
 554.2421875 371.515625 l 2
 537.517578125 371.515625 523.939453125 357.936523438 523.939453125 341.211914062 c 2
 523.939453125 306.36328125 l 2
 523.939453125 289.638671875 537.517578125 276.060546875 554.2421875 276.060546875 c 2
 588.788085938 276.060546875 l 2
523.939453125 674.545898438 m 2
 523.939453125 449.393554688 l 2
 523.939453125 432.668945312 537.517578125 419.090820312 554.2421875 419.090820312 c 2
 588.788085938 419.090820312 l 2
 605.512695312 419.090820312 619.090820312 432.668945312 619.090820312 449.393554688 c 2
 619.090820312 674.545898438 l 2
 619.090820312 691.270507812 605.512695312 704.848632812 588.788085938 704.848632812 c 2
 554.2421875 704.848632812 l 2
 537.517578125 704.848632812 523.939453125 691.270507812 523.939453125 674.545898438 c 2
EndSplineSet
EndChar

StartChar: help
Encoding: 57438 57438 73
Width: 1000
Flags: H
LayerCount: 2
Fore
SplineSet
500 739.393554688 m 0
 257.569335938 739.2265625 60.7734375 542.430664062 60.6064453125 300 c 0
 60.6064453125 57.4921875 257.4921875 -139.393554688 500 -139.393554688 c 0
 742.5078125 -139.393554688 939.393554688 57.4921875 939.393554688 300 c 0
 939.393554688 542.5078125 742.5078125 739.393554688 500 739.393554688 c 0
500 800 m 0
 775.95703125 800 1000 575.95703125 1000 300 c 0
 1000 24.04296875 775.95703125 -200 500 -200 c 0
 224.04296875 -200 0 24.04296875 0 300 c 0
 0 575.95703125 224.04296875 800 500 800 c 0
500 566.36328125 m 0
 353.067382812 566.196289062 233.803710938 446.932617188 233.63671875 300 c 0
 233.63671875 152.990234375 352.990234375 33.63671875 500 33.63671875 c 0
 647.009765625 33.63671875 766.36328125 152.990234375 766.36328125 300 c 0
 766.36328125 447.009765625 647.009765625 566.36328125 500 566.36328125 c 0
500 626.969726562 m 0
 680.459960938 626.969726562 826.969726562 480.459960938 826.969726562 300 c 0
 826.969726562 119.540039062 680.459960938 -26.9697265625 500 -26.9697265625 c 0
 319.540039062 -26.9697265625 173.030273438 119.540039062 173.030273438 300 c 0
 173.030273438 480.459960938 319.540039062 626.969726562 500 626.969726562 c 0
621.818359375 6.060546875 m 2
 699.515625 38.6162109375 761.383789062 100.484375 793.939453125 178.181640625 c 2
 961.818359375 108.788085938 l 1
 911.12890625 -13.677734375 813.677734375 -111.12890625 691.211914062 -161.818359375 c 1
 621.818359375 6.060546875 l 2
206.060546875 178.181640625 m 2
 238.616210938 100.484375 300.484375 38.6162109375 378.181640625 6.060546875 c 2
 308.788085938 -161.818359375 l 1
 186.322265625 -111.12890625 88.87109375 -13.677734375 38.181640625 108.788085938 c 1
 206.060546875 178.181640625 l 2
378.181640625 593.939453125 m 2
 300.484375 561.383789062 238.616210938 499.515625 206.060546875 421.818359375 c 2
 38.181640625 491.211914062 l 1
 88.87109375 613.677734375 186.322265625 711.12890625 308.788085938 761.818359375 c 1
 378.181640625 593.939453125 l 2
793.939453125 421.818359375 m 2
 761.383789062 499.515625 699.515625 561.383789062 621.818359375 593.939453125 c 2
 691.211914062 761.818359375 l 1
 813.677734375 711.12890625 911.12890625 613.677734375 961.818359375 491.211914062 c 1
 793.939453125 421.818359375 l 2
EndSplineSet
EndChar
